<?xml version="1.0" encoding="utf-8"?>
<!-- Generator: Adobe Illustrator 21.1.0, SVG Export Plug-In . SVG Version: 6.00 Build 0)  -->
<svg version="1.1" id="_x30_" xmlns="http://www.w3.org/2000/svg" xmlns:xlink="http://www.w3.org/1999/xlink" x="0px" y="0px"
	 viewBox="0 0 128 85" style="enable-background:new 0 0 128 85;" xml:space="preserve">
<style type="text/css">
	.st0{fill:#FFFFFF;}
	.st1{fill:#AD8045;}
	.st2{fill:#C79F62;}
</style>
<g>
	<polygon class="st0" points="64,0 0,0 0,85 64,85 128,85 128,0 	"/>
	<g>
		<path class="st1" d="M118.613,63.624h-6.96c-0.656,0-1.192-0.534-1.192-1.187l0,0c0-0.653,0.536-1.187,1.192-1.187h2.073
			c0.937,0,1.703-0.763,1.703-1.696l0,0c0-0.933-0.766-1.696-1.703-1.696h-12.372c-0.937,0-1.703,0.763-1.703,1.696l0,0
			c0,0.933,0.766,1.696,1.703,1.696h3.561c0.656,0,1.192,0.534,1.192,1.187l0,0c0,0.653-0.536,1.187-1.192,1.187h-1.703
			c-0.937,0-1.703,0.763-1.703,1.696l0,0c0,0.933,0.766,1.696,1.703,1.696h15.401c0.937,0,1.703-0.763,1.703-1.696l0,0
			C120.316,64.387,119.55,63.624,118.613,63.624z"/>
		<path class="st1" d="M88.525,30.969h-3.6c-0.663,0-1.205-0.54-1.205-1.2l0,0c0-0.66,0.542-1.2,1.205-1.2h1.721
			c0.947,0,1.721-0.771,1.721-1.715l0,0c0-0.943-0.775-1.715-1.721-1.715H71.08c-0.947,0-1.721,0.772-1.721,1.715l0,0
			c0,0.943,0.775,1.715,1.721,1.715h7.035c0.663,0,1.205,0.54,1.205,1.2l0,0c0,0.66-0.542,1.2-1.205,1.2H76.02
			c-0.947,0-1.721,0.772-1.721,1.715l0,0c0,0.943,0.775,1.715,1.721,1.715h12.506c0.947,0,1.721-0.771,1.721-1.715l0,0
			C90.247,31.741,89.472,30.969,88.525,30.969z"/>
		<g>
			<g>
				<g>
					<g>
						<g>
							<g>
								<rect x="67.234" y="3.221" class="st2" width="0.84" height="0.836"/>
								<path class="st2" d="M68.913,2.415v0.807h-0.84V2.667C68.335,2.543,68.617,2.457,68.913,2.415z"/>
								<path class="st2" d="M68.913,7.403V8.21c-0.297-0.042-0.579-0.129-0.84-0.252V7.403H68.913z"/>
								<rect x="68.913" y="3.221" class="st2" width="0.84" height="0.836"/>
								<rect x="70.593" y="3.221" class="st2" width="0.84" height="0.836"/>
								<path class="st2" d="M67.234,4.058v0.836h-0.81c0.042-0.295,0.129-0.576,0.253-0.836H67.234z"/>
								<rect x="68.074" y="4.058" class="st2" width="0.84" height="0.836"/>
								<rect x="67.234" y="4.894" class="st2" width="0.84" height="0.836"/>
								<rect x="68.913" y="4.894" class="st2" width="0.84" height="0.836"/>
								<rect x="70.593" y="4.894" class="st2" width="0.84" height="0.836"/>
								<path class="st2" d="M67.234,5.731v0.836h-0.557c-0.124-0.26-0.211-0.541-0.253-0.836H67.234z"/>
								<rect x="68.074" y="5.731" class="st2" width="0.84" height="0.836"/>
								<path class="st2" d="M70.593,2.667v0.555h-0.84V2.415C70.05,2.457,70.332,2.543,70.593,2.667z"/>
								<path class="st2" d="M70.593,7.403v0.555c-0.261,0.123-0.543,0.21-0.84,0.252V7.403H70.593z"/>
								<rect x="69.753" y="4.058" class="st2" width="0.84" height="0.836"/>
								<rect x="69.753" y="5.731" class="st2" width="0.84" height="0.836"/>
								<path class="st2" d="M72.242,4.894h-0.81V4.058h0.557C72.113,4.318,72.2,4.599,72.242,4.894z"/>
								<path class="st2" d="M72.242,5.731c-0.042,0.295-0.129,0.576-0.253,0.836h-0.557V5.731H72.242z"/>
								<rect x="67.234" y="6.567" class="st2" width="0.84" height="0.836"/>
								<rect x="68.913" y="6.567" class="st2" width="0.84" height="0.836"/>
								<rect x="70.593" y="6.567" class="st2" width="0.84" height="0.836"/>
							</g>
						</g>
						<g>
							<g>
								<rect x="77.901" y="13.847" class="st2" width="0.84" height="0.836"/>
								<path class="st2" d="M79.58,13.04v0.807h-0.84v-0.555C79.002,13.168,79.284,13.082,79.58,13.04z"/>
								<path class="st2" d="M79.58,18.028v0.807c-0.297-0.042-0.579-0.128-0.84-0.252v-0.555H79.58z"/>
								<rect x="79.58" y="13.847" class="st2" width="0.84" height="0.836"/>
								<rect x="81.259" y="13.847" class="st2" width="0.84" height="0.836"/>
								<path class="st2" d="M77.901,14.683v0.836h-0.81c0.042-0.295,0.129-0.576,0.253-0.836H77.901z"/>
								<rect x="78.741" y="14.683" class="st2" width="0.84" height="0.836"/>
								<rect x="77.901" y="15.519" class="st2" width="0.84" height="0.836"/>
								<rect x="79.58" y="15.519" class="st2" width="0.84" height="0.836"/>
								<rect x="81.259" y="15.519" class="st2" width="0.84" height="0.836"/>
								<path class="st2" d="M77.901,16.356v0.836h-0.557c-0.124-0.26-0.211-0.541-0.253-0.836H77.901z"/>
								<rect x="78.741" y="16.356" class="st2" width="0.84" height="0.836"/>
								<path class="st2" d="M81.259,13.292v0.555h-0.84V13.04C80.716,13.082,80.998,13.168,81.259,13.292z"/>
								<path class="st2" d="M81.259,18.028v0.555c-0.261,0.123-0.543,0.21-0.84,0.252v-0.807H81.259z"/>
								<rect x="80.42" y="14.683" class="st2" width="0.84" height="0.836"/>
								<rect x="80.42" y="16.356" class="st2" width="0.84" height="0.836"/>
								<path class="st2" d="M82.909,15.519h-0.81v-0.836h0.557C82.78,14.943,82.867,15.224,82.909,15.519z"/>
								<path class="st2" d="M82.909,16.356c-0.042,0.295-0.129,0.576-0.253,0.836h-0.557v-0.836H82.909z"/>
								<rect x="77.901" y="17.192" class="st2" width="0.84" height="0.836"/>
								<rect x="79.58" y="17.192" class="st2" width="0.84" height="0.836"/>
								<rect x="81.259" y="17.192" class="st2" width="0.84" height="0.836"/>
							</g>
						</g>
					</g>
					<g>
						<g>
							<g>
								<rect x="67.234" y="24.472" class="st2" width="0.84" height="0.836"/>
								<path class="st2" d="M68.913,23.665v0.807h-0.84v-0.555C68.335,23.793,68.617,23.707,68.913,23.665z"/>
								<path class="st2" d="M68.913,28.653v0.807c-0.297-0.042-0.579-0.128-0.84-0.252v-0.555H68.913z"/>
								<rect x="68.913" y="24.472" class="st2" width="0.84" height="0.836"/>
								<rect x="70.593" y="24.472" class="st2" width="0.84" height="0.836"/>
								<path class="st2" d="M67.234,25.308v0.836h-0.81c0.042-0.295,0.129-0.576,0.253-0.836H67.234z"/>
								<rect x="68.074" y="25.308" class="st2" width="0.84" height="0.836"/>
								<rect x="67.234" y="26.144" class="st2" width="0.84" height="0.836"/>
								<rect x="68.913" y="26.144" class="st2" width="0.84" height="0.836"/>
								<rect x="70.593" y="26.144" class="st2" width="0.84" height="0.836"/>
								<path class="st2" d="M67.234,26.981v0.836h-0.557c-0.124-0.26-0.211-0.541-0.253-0.836H67.234z"/>
								<rect x="68.074" y="26.981" class="st2" width="0.84" height="0.836"/>
								<path class="st2" d="M70.593,23.917v0.555h-0.84v-0.807C70.05,23.707,70.332,23.793,70.593,23.917z"/>
								<path class="st2" d="M70.593,28.653v0.555c-0.261,0.123-0.543,0.21-0.84,0.252v-0.807H70.593z"/>
								<rect x="69.753" y="25.308" class="st2" width="0.84" height="0.836"/>
								<rect x="69.753" y="26.981" class="st2" width="0.84" height="0.836"/>
								<path class="st2" d="M72.242,26.144h-0.81v-0.836h0.557C72.113,25.568,72.2,25.849,72.242,26.144z"/>
								<path class="st2" d="M72.242,26.981c-0.042,0.295-0.129,0.576-0.253,0.836h-0.557v-0.836H72.242z"/>
								<rect x="67.234" y="27.817" class="st2" width="0.84" height="0.836"/>
								<rect x="68.913" y="27.817" class="st2" width="0.84" height="0.836"/>
								<rect x="70.593" y="27.817" class="st2" width="0.84" height="0.836"/>
							</g>
						</g>
						<g>
							<g>
								<rect x="77.901" y="35.097" class="st2" width="0.84" height="0.836"/>
								<path class="st2" d="M79.58,34.29v0.807h-0.84v-0.555C79.002,34.418,79.284,34.332,79.58,34.29z"/>
								<path class="st2" d="M79.58,39.278v0.807c-0.297-0.042-0.579-0.129-0.84-0.252v-0.555H79.58z"/>
								<rect x="79.58" y="35.097" class="st2" width="0.84" height="0.836"/>
								<rect x="81.259" y="35.097" class="st2" width="0.84" height="0.836"/>
								<path class="st2" d="M77.901,35.933v0.836h-0.81c0.042-0.295,0.129-0.576,0.253-0.836H77.901z"/>
								<rect x="78.741" y="35.933" class="st2" width="0.84" height="0.836"/>
								<rect x="77.901" y="36.769" class="st2" width="0.84" height="0.836"/>
								<rect x="79.58" y="36.769" class="st2" width="0.84" height="0.836"/>
								<rect x="81.259" y="36.769" class="st2" width="0.84" height="0.836"/>
								<path class="st2" d="M77.901,37.606v0.836h-0.557c-0.124-0.26-0.211-0.541-0.253-0.836H77.901z"/>
								<rect x="78.741" y="37.606" class="st2" width="0.84" height="0.836"/>
								<path class="st2" d="M81.259,34.542v0.555h-0.84V34.29C80.716,34.332,80.998,34.418,81.259,34.542z"/>
								<path class="st2" d="M81.259,39.278v0.555c-0.261,0.124-0.543,0.21-0.84,0.252v-0.807H81.259z"/>
								<rect x="80.42" y="35.933" class="st2" width="0.84" height="0.836"/>
								<rect x="80.42" y="37.606" class="st2" width="0.84" height="0.836"/>
								<path class="st2" d="M82.909,36.769h-0.81v-0.836h0.557C82.78,36.193,82.867,36.474,82.909,36.769z"/>
								<path class="st2" d="M82.909,37.606c-0.042,0.295-0.129,0.576-0.253,0.836h-0.557v-0.836H82.909z"/>
								<rect x="77.901" y="38.442" class="st2" width="0.84" height="0.836"/>
								<rect x="79.58" y="38.442" class="st2" width="0.84" height="0.836"/>
								<rect x="81.259" y="38.442" class="st2" width="0.84" height="0.836"/>
							</g>
						</g>
					</g>
				</g>
				<g>
					<g>
						<g>
							<g>
								<rect x="88.567" y="3.221" class="st2" width="0.84" height="0.836"/>
								<path class="st2" d="M90.247,2.415v0.807h-0.84V2.667C89.668,2.543,89.95,2.457,90.247,2.415z"/>
								<path class="st2" d="M90.247,7.403V8.21c-0.296-0.042-0.579-0.129-0.84-0.252V7.403H90.247z"/>
								<rect x="90.247" y="3.221" class="st2" width="0.84" height="0.836"/>
								<rect x="91.926" y="3.221" class="st2" width="0.84" height="0.836"/>
								<path class="st2" d="M88.567,4.058v0.836h-0.81c0.042-0.295,0.129-0.576,0.253-0.836H88.567z"/>
								<rect x="89.407" y="4.058" class="st2" width="0.84" height="0.836"/>
								<rect x="88.567" y="4.894" class="st2" width="0.84" height="0.836"/>
								<rect x="90.247" y="4.894" class="st2" width="0.84" height="0.836"/>
								<rect x="91.926" y="4.894" class="st2" width="0.84" height="0.836"/>
								<path class="st2" d="M88.567,5.731v0.836h-0.557c-0.124-0.26-0.211-0.541-0.253-0.836H88.567z"/>
								<rect x="89.407" y="5.731" class="st2" width="0.84" height="0.836"/>
								<path class="st2" d="M91.926,2.667v0.555h-0.84V2.415C91.383,2.457,91.665,2.543,91.926,2.667z"/>
								<path class="st2" d="M91.926,7.403v0.555c-0.261,0.123-0.543,0.21-0.84,0.252V7.403H91.926z"/>
								<rect x="91.087" y="4.058" class="st2" width="0.84" height="0.836"/>
								<rect x="91.087" y="5.731" class="st2" width="0.84" height="0.836"/>
								<path class="st2" d="M93.576,4.894h-0.81V4.058h0.557C93.447,4.318,93.533,4.599,93.576,4.894z"/>
								<path class="st2" d="M93.576,5.731c-0.042,0.295-0.129,0.576-0.253,0.836h-0.557V5.731H93.576z"/>
								<rect x="88.567" y="6.567" class="st2" width="0.84" height="0.836"/>
								<rect x="90.247" y="6.567" class="st2" width="0.84" height="0.836"/>
								<rect x="91.926" y="6.567" class="st2" width="0.84" height="0.836"/>
							</g>
						</g>
						<g>
							<g>
								<rect x="99.234" y="13.847" class="st2" width="0.84" height="0.836"/>
								<path class="st2" d="M100.913,13.04v0.807h-0.84v-0.555C100.335,13.168,100.617,13.082,100.913,13.04z"/>
								<path class="st2" d="M100.913,18.028v0.807c-0.297-0.042-0.579-0.128-0.84-0.252v-0.555H100.913z"/>
								<rect x="100.913" y="13.847" class="st2" width="0.84" height="0.836"/>
								<rect x="102.593" y="13.847" class="st2" width="0.84" height="0.836"/>
								<path class="st2" d="M99.234,14.683v0.836h-0.81c0.042-0.295,0.129-0.576,0.253-0.836H99.234z"/>
								<rect x="100.074" y="14.683" class="st2" width="0.84" height="0.836"/>
								<rect x="99.234" y="15.519" class="st2" width="0.84" height="0.836"/>
								<rect x="100.913" y="15.519" class="st2" width="0.84" height="0.836"/>
								<rect x="102.593" y="15.519" class="st2" width="0.84" height="0.836"/>
								<path class="st2" d="M99.234,16.356v0.836h-0.557c-0.124-0.26-0.211-0.541-0.253-0.836H99.234z"/>
								<rect x="100.074" y="16.356" class="st2" width="0.84" height="0.836"/>
								<path class="st2" d="M102.593,13.292v0.555h-0.84V13.04C102.05,13.082,102.332,13.168,102.593,13.292z"/>
								<path class="st2" d="M102.593,18.028v0.555c-0.261,0.123-0.543,0.21-0.84,0.252v-0.807H102.593z"/>
								<rect x="101.753" y="14.683" class="st2" width="0.84" height="0.836"/>
								<rect x="101.753" y="16.356" class="st2" width="0.84" height="0.836"/>
								<path class="st2" d="M104.242,15.519h-0.81v-0.836h0.557C104.113,14.943,104.2,15.224,104.242,15.519z"/>
								<path class="st2" d="M104.242,16.356c-0.042,0.295-0.129,0.576-0.253,0.836h-0.557v-0.836H104.242z"/>
								<rect x="99.234" y="17.192" class="st2" width="0.84" height="0.836"/>
								<rect x="100.913" y="17.192" class="st2" width="0.84" height="0.836"/>
								<rect x="102.593" y="17.192" class="st2" width="0.84" height="0.836"/>
							</g>
						</g>
					</g>
					<g>
						<g>
							<g>
								<rect x="88.567" y="24.472" class="st2" width="0.84" height="0.836"/>
								<path class="st2" d="M90.247,23.665v0.807h-0.84v-0.555C89.668,23.793,89.95,23.707,90.247,23.665z"/>
								<path class="st2" d="M90.247,28.653v0.807c-0.296-0.042-0.579-0.128-0.84-0.252v-0.555H90.247z"/>
								<rect x="90.247" y="24.472" class="st2" width="0.84" height="0.836"/>
								<rect x="91.926" y="24.472" class="st2" width="0.84" height="0.836"/>
								<path class="st2" d="M88.567,25.308v0.836h-0.81c0.042-0.295,0.129-0.576,0.253-0.836H88.567z"/>
								<rect x="89.407" y="25.308" class="st2" width="0.84" height="0.836"/>
								<rect x="88.567" y="26.144" class="st2" width="0.84" height="0.836"/>
								<rect x="90.247" y="26.144" class="st2" width="0.84" height="0.836"/>
								<rect x="91.926" y="26.144" class="st2" width="0.84" height="0.836"/>
								<path class="st2" d="M88.567,26.981v0.836h-0.557c-0.124-0.26-0.211-0.541-0.253-0.836H88.567z"/>
								<rect x="89.407" y="26.981" class="st2" width="0.84" height="0.836"/>
								<path class="st2" d="M91.926,23.917v0.555h-0.84v-0.807C91.383,23.707,91.665,23.793,91.926,23.917z"/>
								<path class="st2" d="M91.926,28.653v0.555c-0.261,0.123-0.543,0.21-0.84,0.252v-0.807H91.926z"/>
								<rect x="91.087" y="25.308" class="st2" width="0.84" height="0.836"/>
								<rect x="91.087" y="26.981" class="st2" width="0.84" height="0.836"/>
								<path class="st2" d="M93.576,26.144h-0.81v-0.836h0.557C93.447,25.568,93.533,25.849,93.576,26.144z"/>
								<path class="st2" d="M93.576,26.981c-0.042,0.295-0.129,0.576-0.253,0.836h-0.557v-0.836H93.576z"/>
								<rect x="88.567" y="27.817" class="st2" width="0.84" height="0.836"/>
								<rect x="90.247" y="27.817" class="st2" width="0.84" height="0.836"/>
								<rect x="91.926" y="27.817" class="st2" width="0.84" height="0.836"/>
							</g>
						</g>
						<g>
							<g>
								<rect x="99.234" y="35.097" class="st2" width="0.84" height="0.836"/>
								<path class="st2" d="M100.913,34.29v0.807h-0.84v-0.555C100.335,34.418,100.617,34.332,100.913,34.29z"/>
								<path class="st2" d="M100.913,39.278v0.807c-0.297-0.042-0.579-0.129-0.84-0.252v-0.555H100.913z"/>
								<rect x="100.913" y="35.097" class="st2" width="0.84" height="0.836"/>
								<rect x="102.593" y="35.097" class="st2" width="0.84" height="0.836"/>
								<path class="st2" d="M99.234,35.933v0.836h-0.81c0.042-0.295,0.129-0.576,0.253-0.836H99.234z"/>
								<rect x="100.074" y="35.933" class="st2" width="0.84" height="0.836"/>
								<rect x="99.234" y="36.769" class="st2" width="0.84" height="0.836"/>
								<rect x="100.913" y="36.769" class="st2" width="0.84" height="0.836"/>
								<rect x="102.593" y="36.769" class="st2" width="0.84" height="0.836"/>
								<path class="st2" d="M99.234,37.606v0.836h-0.557c-0.124-0.26-0.211-0.541-0.253-0.836H99.234z"/>
								<rect x="100.074" y="37.606" class="st2" width="0.84" height="0.836"/>
								<path class="st2" d="M102.593,34.542v0.555h-0.84V34.29C102.05,34.332,102.332,34.418,102.593,34.542z"/>
								<path class="st2" d="M102.593,39.278v0.555c-0.261,0.124-0.543,0.21-0.84,0.252v-0.807H102.593z"/>
								<rect x="101.753" y="35.933" class="st2" width="0.84" height="0.836"/>
								<rect x="101.753" y="37.606" class="st2" width="0.84" height="0.836"/>
								<path class="st2" d="M104.242,36.769h-0.81v-0.836h0.557C104.113,36.193,104.2,36.474,104.242,36.769z"/>
								<path class="st2" d="M104.242,37.606c-0.042,0.295-0.129,0.576-0.253,0.836h-0.557v-0.836H104.242z"/>
								<rect x="99.234" y="38.442" class="st2" width="0.84" height="0.836"/>
								<rect x="100.913" y="38.442" class="st2" width="0.84" height="0.836"/>
								<rect x="102.593" y="38.442" class="st2" width="0.84" height="0.836"/>
							</g>
						</g>
					</g>
				</g>
				<g>
					<g>
						<g>
							<g>
								<rect x="109.901" y="3.221" class="st2" width="0.84" height="0.836"/>
								<path class="st2" d="M111.58,2.415v0.807h-0.84V2.667C111.001,2.543,111.284,2.457,111.58,2.415z"/>
								<path class="st2" d="M111.58,7.403V8.21c-0.297-0.042-0.579-0.129-0.84-0.252V7.403H111.58z"/>
								<rect x="111.58" y="3.221" class="st2" width="0.84" height="0.836"/>
								<rect x="113.259" y="3.221" class="st2" width="0.84" height="0.836"/>
								<path class="st2" d="M109.901,4.058v0.836h-0.81c0.042-0.295,0.129-0.576,0.253-0.836H109.901z"/>
								<rect x="110.74" y="4.058" class="st2" width="0.84" height="0.836"/>
								<rect x="109.901" y="4.894" class="st2" width="0.84" height="0.836"/>
								<rect x="111.58" y="4.894" class="st2" width="0.84" height="0.836"/>
								<rect x="113.259" y="4.894" class="st2" width="0.84" height="0.836"/>
								<path class="st2" d="M109.901,5.731v0.836h-0.557c-0.124-0.26-0.211-0.541-0.253-0.836H109.901z"/>
								<rect x="110.74" y="5.731" class="st2" width="0.84" height="0.836"/>
								<path class="st2" d="M113.259,2.667v0.555h-0.84V2.415C112.716,2.457,112.998,2.543,113.259,2.667z"/>
								<path class="st2" d="M113.259,7.403v0.555c-0.261,0.123-0.543,0.21-0.84,0.252V7.403H113.259z"/>
								<rect x="112.42" y="4.058" class="st2" width="0.84" height="0.836"/>
								<rect x="112.42" y="5.731" class="st2" width="0.84" height="0.836"/>
								<path class="st2" d="M114.909,4.894h-0.81V4.058h0.557C114.78,4.318,114.867,4.599,114.909,4.894z"/>
								<path class="st2" d="M114.909,5.731c-0.042,0.295-0.129,0.576-0.253,0.836h-0.557V5.731H114.909z"/>
								<rect x="109.901" y="6.567" class="st2" width="0.84" height="0.836"/>
								<rect x="111.58" y="6.567" class="st2" width="0.84" height="0.836"/>
								<rect x="113.259" y="6.567" class="st2" width="0.84" height="0.836"/>
							</g>
						</g>
						<g>
							<g>
								<rect x="120.567" y="13.847" class="st2" width="0.84" height="0.836"/>
								<path class="st2" d="M122.247,13.04v0.807h-0.84v-0.555C121.668,13.168,121.95,13.082,122.247,13.04z"/>
								<path class="st2" d="M122.247,18.028v0.807c-0.296-0.042-0.579-0.128-0.84-0.252v-0.555H122.247z"/>
								<rect x="122.247" y="13.847" class="st2" width="0.84" height="0.836"/>
								<rect x="123.926" y="13.847" class="st2" width="0.84" height="0.836"/>
								<path class="st2" d="M120.567,14.683v0.836h-0.81c0.042-0.295,0.129-0.576,0.253-0.836H120.567z"/>
								<rect x="121.407" y="14.683" class="st2" width="0.84" height="0.836"/>
								<rect x="120.567" y="15.519" class="st2" width="0.84" height="0.836"/>
								<rect x="122.247" y="15.519" class="st2" width="0.84" height="0.836"/>
								<rect x="123.926" y="15.519" class="st2" width="0.84" height="0.836"/>
								<path class="st2" d="M120.567,16.356v0.836h-0.557c-0.124-0.26-0.211-0.541-0.253-0.836H120.567z"/>
								<rect x="121.407" y="16.356" class="st2" width="0.84" height="0.836"/>
								<path class="st2" d="M123.926,13.292v0.555h-0.84V13.04C123.383,13.082,123.665,13.168,123.926,13.292z"/>
								<path class="st2" d="M123.926,18.028v0.555c-0.261,0.123-0.543,0.21-0.84,0.252v-0.807H123.926z"/>
								<rect x="123.086" y="14.683" class="st2" width="0.84" height="0.836"/>
								<rect x="123.086" y="16.356" class="st2" width="0.84" height="0.836"/>
								<path class="st2" d="M125.576,15.519h-0.81v-0.836h0.557C125.447,14.943,125.533,15.224,125.576,15.519z"/>
								<path class="st2" d="M125.576,16.356c-0.042,0.295-0.129,0.576-0.253,0.836h-0.557v-0.836H125.576z"/>
								<rect x="120.567" y="17.192" class="st2" width="0.84" height="0.836"/>
								<rect x="122.247" y="17.192" class="st2" width="0.84" height="0.836"/>
								<rect x="123.926" y="17.192" class="st2" width="0.84" height="0.836"/>
							</g>
						</g>
					</g>
					<g>
						<g>
							<g>
								<rect x="109.901" y="24.472" class="st2" width="0.84" height="0.836"/>
								<path class="st2" d="M111.58,23.665v0.807h-0.84v-0.555C111.001,23.793,111.284,23.707,111.58,23.665z"/>
								<path class="st2" d="M111.58,28.653v0.807c-0.297-0.042-0.579-0.128-0.84-0.252v-0.555H111.58z"/>
								<rect x="111.58" y="24.472" class="st2" width="0.84" height="0.836"/>
								<rect x="113.259" y="24.472" class="st2" width="0.84" height="0.836"/>
								<path class="st2" d="M109.901,25.308v0.836h-0.81c0.042-0.295,0.129-0.576,0.253-0.836H109.901z"/>
								<rect x="110.74" y="25.308" class="st2" width="0.84" height="0.836"/>
								<rect x="109.901" y="26.144" class="st2" width="0.84" height="0.836"/>
								<rect x="111.58" y="26.144" class="st2" width="0.84" height="0.836"/>
								<rect x="113.259" y="26.144" class="st2" width="0.84" height="0.836"/>
								<path class="st2" d="M109.901,26.981v0.836h-0.557c-0.124-0.26-0.211-0.541-0.253-0.836H109.901z"/>
								<rect x="110.74" y="26.981" class="st2" width="0.84" height="0.836"/>
								<path class="st2" d="M113.259,23.917v0.555h-0.84v-0.807C112.716,23.707,112.998,23.793,113.259,23.917z"/>
								<path class="st2" d="M113.259,28.653v0.555c-0.261,0.123-0.543,0.21-0.84,0.252v-0.807H113.259z"/>
								<rect x="112.42" y="25.308" class="st2" width="0.84" height="0.836"/>
								<rect x="112.42" y="26.981" class="st2" width="0.84" height="0.836"/>
								<path class="st2" d="M114.909,26.144h-0.81v-0.836h0.557C114.78,25.568,114.867,25.849,114.909,26.144z"/>
								<path class="st2" d="M114.909,26.981c-0.042,0.295-0.129,0.576-0.253,0.836h-0.557v-0.836H114.909z"/>
								<rect x="109.901" y="27.817" class="st2" width="0.84" height="0.836"/>
								<rect x="111.58" y="27.817" class="st2" width="0.84" height="0.836"/>
								<rect x="113.259" y="27.817" class="st2" width="0.84" height="0.836"/>
							</g>
						</g>
						<g>
							<g>
								<rect x="120.567" y="35.097" class="st2" width="0.84" height="0.836"/>
								<path class="st2" d="M122.247,34.29v0.807h-0.84v-0.555C121.668,34.418,121.95,34.332,122.247,34.29z"/>
								<path class="st2" d="M122.247,39.278v0.807c-0.296-0.042-0.579-0.129-0.84-0.252v-0.555H122.247z"/>
								<rect x="122.247" y="35.097" class="st2" width="0.84" height="0.836"/>
								<rect x="123.926" y="35.097" class="st2" width="0.84" height="0.836"/>
								<path class="st2" d="M120.567,35.933v0.836h-0.81c0.042-0.295,0.129-0.576,0.253-0.836H120.567z"/>
								<rect x="121.407" y="35.933" class="st2" width="0.84" height="0.836"/>
								<rect x="120.567" y="36.769" class="st2" width="0.84" height="0.836"/>
								<rect x="122.247" y="36.769" class="st2" width="0.84" height="0.836"/>
								<rect x="123.926" y="36.769" class="st2" width="0.84" height="0.836"/>
								<path class="st2" d="M120.567,37.606v0.836h-0.557c-0.124-0.26-0.211-0.541-0.253-0.836H120.567z"/>
								<rect x="121.407" y="37.606" class="st2" width="0.84" height="0.836"/>
								<path class="st2" d="M123.926,34.542v0.555h-0.84V34.29C123.383,34.332,123.665,34.418,123.926,34.542z"/>
								<path class="st2" d="M123.926,39.278v0.555c-0.261,0.124-0.543,0.21-0.84,0.252v-0.807H123.926z"/>
								<rect x="123.086" y="35.933" class="st2" width="0.84" height="0.836"/>
								<rect x="123.086" y="37.606" class="st2" width="0.84" height="0.836"/>
								<path class="st2" d="M125.576,36.769h-0.81v-0.836h0.557C125.447,36.193,125.533,36.474,125.576,36.769z"/>
								<path class="st2" d="M125.576,37.606c-0.042,0.295-0.129,0.576-0.253,0.836h-0.557v-0.836H125.576z"/>
								<rect x="120.567" y="38.442" class="st2" width="0.84" height="0.836"/>
								<rect x="122.247" y="38.442" class="st2" width="0.84" height="0.836"/>
								<rect x="123.926" y="38.442" class="st2" width="0.84" height="0.836"/>
							</g>
						</g>
					</g>
				</g>
			</g>
			<g>
				<g>
					<g>
						<g>
							<g>
								<rect x="67.234" y="45.722" class="st2" width="0.84" height="0.836"/>
								<path class="st2" d="M68.913,44.915v0.807h-0.84v-0.555C68.335,45.043,68.617,44.957,68.913,44.915z"/>
								<path class="st2" d="M68.913,49.903v0.807c-0.297-0.042-0.579-0.129-0.84-0.252v-0.555H68.913z"/>
								<rect x="68.913" y="45.722" class="st2" width="0.84" height="0.836"/>
								<rect x="70.593" y="45.722" class="st2" width="0.84" height="0.836"/>
								<path class="st2" d="M67.234,46.558v0.836h-0.81c0.042-0.295,0.129-0.576,0.253-0.836H67.234z"/>
								<rect x="68.074" y="46.558" class="st2" width="0.84" height="0.836"/>
								<rect x="67.234" y="47.394" class="st2" width="0.84" height="0.836"/>
								<rect x="68.913" y="47.394" class="st2" width="0.84" height="0.836"/>
								<rect x="70.593" y="47.394" class="st2" width="0.84" height="0.836"/>
								<path class="st2" d="M67.234,48.231v0.836h-0.557c-0.124-0.26-0.211-0.541-0.253-0.836H67.234z"/>
								<rect x="68.074" y="48.231" class="st2" width="0.84" height="0.836"/>
								<path class="st2" d="M70.593,45.167v0.555h-0.84v-0.807C70.05,44.957,70.332,45.043,70.593,45.167z"/>
								<path class="st2" d="M70.593,49.903v0.555c-0.261,0.124-0.543,0.21-0.84,0.252v-0.807H70.593z"/>
								<rect x="69.753" y="46.558" class="st2" width="0.84" height="0.836"/>
								<rect x="69.753" y="48.231" class="st2" width="0.84" height="0.836"/>
								<path class="st2" d="M72.242,47.394h-0.81v-0.836h0.557C72.113,46.818,72.2,47.099,72.242,47.394z"/>
								<path class="st2" d="M72.242,48.231c-0.042,0.295-0.129,0.576-0.253,0.836h-0.557v-0.836H72.242z"/>
								<rect x="67.234" y="49.067" class="st2" width="0.84" height="0.836"/>
								<rect x="68.913" y="49.067" class="st2" width="0.84" height="0.836"/>
								<rect x="70.593" y="49.067" class="st2" width="0.84" height="0.836"/>
							</g>
						</g>
						<g>
							<g>
								<rect x="77.901" y="56.347" class="st2" width="0.84" height="0.836"/>
								<path class="st2" d="M79.58,55.54v0.807h-0.84v-0.555C79.002,55.668,79.284,55.582,79.58,55.54z"/>
								<path class="st2" d="M79.58,60.528v0.807c-0.297-0.042-0.579-0.129-0.84-0.252v-0.555H79.58z"/>
								<rect x="79.58" y="56.347" class="st2" width="0.84" height="0.836"/>
								<rect x="81.259" y="56.347" class="st2" width="0.84" height="0.836"/>
								<path class="st2" d="M77.901,57.183v0.836h-0.81c0.042-0.295,0.129-0.576,0.253-0.836H77.901z"/>
								<rect x="78.741" y="57.183" class="st2" width="0.84" height="0.836"/>
								<rect x="77.901" y="58.019" class="st2" width="0.84" height="0.836"/>
								<rect x="79.58" y="58.019" class="st2" width="0.84" height="0.836"/>
								<rect x="81.259" y="58.019" class="st2" width="0.84" height="0.836"/>
								<path class="st2" d="M77.901,58.856v0.836h-0.557c-0.124-0.26-0.211-0.541-0.253-0.836H77.901z"/>
								<rect x="78.741" y="58.856" class="st2" width="0.84" height="0.836"/>
								<path class="st2" d="M81.259,55.792v0.555h-0.84V55.54C80.716,55.582,80.998,55.668,81.259,55.792z"/>
								<path class="st2" d="M81.259,60.528v0.555c-0.261,0.124-0.543,0.21-0.84,0.252v-0.807H81.259z"/>
								<rect x="80.42" y="57.183" class="st2" width="0.84" height="0.836"/>
								<rect x="80.42" y="58.856" class="st2" width="0.84" height="0.836"/>
								<path class="st2" d="M82.909,58.019h-0.81v-0.836h0.557C82.78,57.443,82.867,57.724,82.909,58.019z"/>
								<path class="st2" d="M82.909,58.856c-0.042,0.295-0.129,0.576-0.253,0.836h-0.557v-0.836H82.909z"/>
								<rect x="77.901" y="59.692" class="st2" width="0.84" height="0.836"/>
								<rect x="79.58" y="59.692" class="st2" width="0.84" height="0.836"/>
								<rect x="81.259" y="59.692" class="st2" width="0.84" height="0.836"/>
							</g>
						</g>
					</g>
					<g>
						<g>
							<g>
								<rect x="67.234" y="66.971" class="st2" width="0.84" height="0.836"/>
								<path class="st2" d="M68.913,66.165v0.807h-0.84v-0.555C68.335,66.293,68.617,66.207,68.913,66.165z"/>
								<path class="st2" d="M68.913,71.154v0.807c-0.297-0.042-0.579-0.128-0.84-0.252v-0.555H68.913z"/>
								<rect x="68.913" y="66.971" class="st2" width="0.84" height="0.836"/>
								<rect x="70.593" y="66.971" class="st2" width="0.84" height="0.836"/>
								<path class="st2" d="M67.234,67.808v0.836h-0.81c0.042-0.295,0.129-0.576,0.253-0.836H67.234z"/>
								<rect x="68.074" y="67.808" class="st2" width="0.84" height="0.836"/>
								<rect x="67.234" y="68.644" class="st2" width="0.84" height="0.836"/>
								<rect x="68.913" y="68.644" class="st2" width="0.84" height="0.836"/>
								<rect x="70.593" y="68.644" class="st2" width="0.84" height="0.836"/>
								<path class="st2" d="M67.234,69.481v0.836h-0.557c-0.124-0.26-0.211-0.541-0.253-0.836H67.234z"/>
								<rect x="68.074" y="69.481" class="st2" width="0.84" height="0.836"/>
								<path class="st2" d="M70.593,66.417v0.555h-0.84v-0.807C70.05,66.207,70.332,66.293,70.593,66.417z"/>
								<path class="st2" d="M70.593,71.154v0.555c-0.261,0.124-0.543,0.21-0.84,0.252v-0.807H70.593z"/>
								<rect x="69.753" y="67.808" class="st2" width="0.84" height="0.836"/>
								<rect x="69.753" y="69.481" class="st2" width="0.84" height="0.836"/>
								<path class="st2" d="M72.242,68.644h-0.81v-0.836h0.557C72.113,68.068,72.2,68.349,72.242,68.644z"/>
								<path class="st2" d="M72.242,69.481c-0.042,0.295-0.129,0.576-0.253,0.836h-0.557v-0.836H72.242z"/>
								<rect x="67.234" y="70.317" class="st2" width="0.84" height="0.836"/>
								<rect x="68.913" y="70.317" class="st2" width="0.84" height="0.836"/>
								<rect x="70.593" y="70.317" class="st2" width="0.84" height="0.836"/>
							</g>
						</g>
						<g>
							<g>
								<rect x="77.901" y="77.596" class="st2" width="0.84" height="0.836"/>
								<path class="st2" d="M79.58,76.79v0.807h-0.84v-0.555C79.002,76.918,79.284,76.832,79.58,76.79z"/>
								<path class="st2" d="M79.58,81.779v0.807c-0.297-0.042-0.579-0.128-0.84-0.252v-0.555H79.58z"/>
								<rect x="79.58" y="77.596" class="st2" width="0.84" height="0.836"/>
								<rect x="81.259" y="77.596" class="st2" width="0.84" height="0.836"/>
								<path class="st2" d="M77.901,78.433v0.836h-0.81c0.042-0.295,0.129-0.576,0.253-0.836H77.901z"/>
								<rect x="78.741" y="78.433" class="st2" width="0.84" height="0.836"/>
								<rect x="77.901" y="79.269" class="st2" width="0.84" height="0.836"/>
								<rect x="79.58" y="79.269" class="st2" width="0.84" height="0.836"/>
								<rect x="81.259" y="79.269" class="st2" width="0.84" height="0.836"/>
								<path class="st2" d="M77.901,80.106v0.836h-0.557c-0.124-0.26-0.211-0.541-0.253-0.836H77.901z"/>
								<rect x="78.741" y="80.106" class="st2" width="0.84" height="0.836"/>
								<path class="st2" d="M81.259,77.042v0.555h-0.84V76.79C80.716,76.832,80.998,76.918,81.259,77.042z"/>
								<path class="st2" d="M81.259,81.779v0.555c-0.261,0.124-0.543,0.21-0.84,0.252v-0.807H81.259z"/>
								<rect x="80.42" y="78.433" class="st2" width="0.84" height="0.836"/>
								<rect x="80.42" y="80.106" class="st2" width="0.84" height="0.836"/>
								<path class="st2" d="M82.909,79.269h-0.81v-0.836h0.557C82.78,78.693,82.867,78.974,82.909,79.269z"/>
								<path class="st2" d="M82.909,80.106c-0.042,0.295-0.129,0.576-0.253,0.836h-0.557v-0.836H82.909z"/>
								<rect x="77.901" y="80.942" class="st2" width="0.84" height="0.836"/>
								<rect x="79.58" y="80.942" class="st2" width="0.84" height="0.836"/>
								<rect x="81.259" y="80.942" class="st2" width="0.84" height="0.836"/>
							</g>
						</g>
					</g>
				</g>
				<g>
					<g>
						<g>
							<g>
								<rect x="88.567" y="45.722" class="st2" width="0.84" height="0.836"/>
								<path class="st2" d="M90.247,44.915v0.807h-0.84v-0.555C89.668,45.043,89.95,44.957,90.247,44.915z"/>
								<path class="st2" d="M90.247,49.903v0.807c-0.296-0.042-0.579-0.129-0.84-0.252v-0.555H90.247z"/>
								<rect x="90.247" y="45.722" class="st2" width="0.84" height="0.836"/>
								<rect x="91.926" y="45.722" class="st2" width="0.84" height="0.836"/>
								<path class="st2" d="M88.567,46.558v0.836h-0.81c0.042-0.295,0.129-0.576,0.253-0.836H88.567z"/>
								<rect x="89.407" y="46.558" class="st2" width="0.84" height="0.836"/>
								<rect x="88.567" y="47.394" class="st2" width="0.84" height="0.836"/>
								<rect x="90.247" y="47.394" class="st2" width="0.84" height="0.836"/>
								<rect x="91.926" y="47.394" class="st2" width="0.84" height="0.836"/>
								<path class="st2" d="M88.567,48.231v0.836h-0.557c-0.124-0.26-0.211-0.541-0.253-0.836H88.567z"/>
								<rect x="89.407" y="48.231" class="st2" width="0.84" height="0.836"/>
								<path class="st2" d="M91.926,45.167v0.555h-0.84v-0.807C91.383,44.957,91.665,45.043,91.926,45.167z"/>
								<path class="st2" d="M91.926,49.903v0.555c-0.261,0.124-0.543,0.21-0.84,0.252v-0.807H91.926z"/>
								<rect x="91.087" y="46.558" class="st2" width="0.84" height="0.836"/>
								<rect x="91.087" y="48.231" class="st2" width="0.84" height="0.836"/>
								<path class="st2" d="M93.576,47.394h-0.81v-0.836h0.557C93.447,46.818,93.533,47.099,93.576,47.394z"/>
								<path class="st2" d="M93.576,48.231c-0.042,0.295-0.129,0.576-0.253,0.836h-0.557v-0.836H93.576z"/>
								<rect x="88.567" y="49.067" class="st2" width="0.84" height="0.836"/>
								<rect x="90.247" y="49.067" class="st2" width="0.84" height="0.836"/>
								<rect x="91.926" y="49.067" class="st2" width="0.84" height="0.836"/>
							</g>
						</g>
						<g>
							<g>
								<rect x="99.234" y="56.347" class="st2" width="0.84" height="0.836"/>
								<path class="st2" d="M100.913,55.54v0.807h-0.84v-0.555C100.335,55.668,100.617,55.582,100.913,55.54z"/>
								<path class="st2" d="M100.913,60.528v0.807c-0.297-0.042-0.579-0.129-0.84-0.252v-0.555H100.913z"/>
								<rect x="100.913" y="56.347" class="st2" width="0.84" height="0.836"/>
								<rect x="102.593" y="56.347" class="st2" width="0.84" height="0.836"/>
								<path class="st2" d="M99.234,57.183v0.836h-0.81c0.042-0.295,0.129-0.576,0.253-0.836H99.234z"/>
								<rect x="100.074" y="57.183" class="st2" width="0.84" height="0.836"/>
								<rect x="99.234" y="58.019" class="st2" width="0.84" height="0.836"/>
								<rect x="100.913" y="58.019" class="st2" width="0.84" height="0.836"/>
								<rect x="102.593" y="58.019" class="st2" width="0.84" height="0.836"/>
								<path class="st2" d="M99.234,58.856v0.836h-0.557c-0.124-0.26-0.211-0.541-0.253-0.836H99.234z"/>
								<rect x="100.074" y="58.856" class="st2" width="0.84" height="0.836"/>
								<path class="st2" d="M102.593,55.792v0.555h-0.84V55.54C102.05,55.582,102.332,55.668,102.593,55.792z"/>
								<path class="st2" d="M102.593,60.528v0.555c-0.261,0.124-0.543,0.21-0.84,0.252v-0.807H102.593z"/>
								<rect x="101.753" y="57.183" class="st2" width="0.84" height="0.836"/>
								<rect x="101.753" y="58.856" class="st2" width="0.84" height="0.836"/>
								<path class="st2" d="M104.242,58.019h-0.81v-0.836h0.557C104.113,57.443,104.2,57.724,104.242,58.019z"/>
								<path class="st2" d="M104.242,58.856c-0.042,0.295-0.129,0.576-0.253,0.836h-0.557v-0.836H104.242z"/>
								<rect x="99.234" y="59.692" class="st2" width="0.84" height="0.836"/>
								<rect x="100.913" y="59.692" class="st2" width="0.84" height="0.836"/>
								<rect x="102.593" y="59.692" class="st2" width="0.84" height="0.836"/>
							</g>
						</g>
					</g>
					<g>
						<g>
							<g>
								<rect x="88.567" y="66.971" class="st2" width="0.84" height="0.836"/>
								<path class="st2" d="M90.247,66.165v0.807h-0.84v-0.555C89.668,66.293,89.95,66.207,90.247,66.165z"/>
								<path class="st2" d="M90.247,71.154v0.807c-0.296-0.042-0.579-0.128-0.84-0.252v-0.555H90.247z"/>
								<rect x="90.247" y="66.971" class="st2" width="0.84" height="0.836"/>
								<rect x="91.926" y="66.971" class="st2" width="0.84" height="0.836"/>
								<path class="st2" d="M88.567,67.808v0.836h-0.81c0.042-0.295,0.129-0.576,0.253-0.836H88.567z"/>
								<rect x="89.407" y="67.808" class="st2" width="0.84" height="0.836"/>
								<rect x="88.567" y="68.644" class="st2" width="0.84" height="0.836"/>
								<rect x="90.247" y="68.644" class="st2" width="0.84" height="0.836"/>
								<rect x="91.926" y="68.644" class="st2" width="0.84" height="0.836"/>
								<path class="st2" d="M88.567,69.481v0.836h-0.557c-0.124-0.26-0.211-0.541-0.253-0.836H88.567z"/>
								<rect x="89.407" y="69.481" class="st2" width="0.84" height="0.836"/>
								<path class="st2" d="M91.926,66.417v0.555h-0.84v-0.807C91.383,66.207,91.665,66.293,91.926,66.417z"/>
								<path class="st2" d="M91.926,71.154v0.555c-0.261,0.124-0.543,0.21-0.84,0.252v-0.807H91.926z"/>
								<rect x="91.087" y="67.808" class="st2" width="0.84" height="0.836"/>
								<rect x="91.087" y="69.481" class="st2" width="0.84" height="0.836"/>
								<path class="st2" d="M93.576,68.644h-0.81v-0.836h0.557C93.447,68.068,93.533,68.349,93.576,68.644z"/>
								<path class="st2" d="M93.576,69.481c-0.042,0.295-0.129,0.576-0.253,0.836h-0.557v-0.836H93.576z"/>
								<rect x="88.567" y="70.317" class="st2" width="0.84" height="0.836"/>
								<rect x="90.247" y="70.317" class="st2" width="0.84" height="0.836"/>
								<rect x="91.926" y="70.317" class="st2" width="0.84" height="0.836"/>
							</g>
						</g>
						<g>
							<g>
								<rect x="99.234" y="77.596" class="st2" width="0.84" height="0.836"/>
								<path class="st2" d="M100.913,76.79v0.807h-0.84v-0.555C100.335,76.918,100.617,76.832,100.913,76.79z"/>
								<path class="st2" d="M100.913,81.779v0.807c-0.297-0.042-0.579-0.128-0.84-0.252v-0.555H100.913z"/>
								<rect x="100.913" y="77.596" class="st2" width="0.84" height="0.836"/>
								<rect x="102.593" y="77.596" class="st2" width="0.84" height="0.836"/>
								<path class="st2" d="M99.234,78.433v0.836h-0.81c0.042-0.295,0.129-0.576,0.253-0.836H99.234z"/>
								<rect x="100.074" y="78.433" class="st2" width="0.84" height="0.836"/>
								<rect x="99.234" y="79.269" class="st2" width="0.84" height="0.836"/>
								<rect x="100.913" y="79.269" class="st2" width="0.84" height="0.836"/>
								<rect x="102.593" y="79.269" class="st2" width="0.84" height="0.836"/>
								<path class="st2" d="M99.234,80.106v0.836h-0.557c-0.124-0.26-0.211-0.541-0.253-0.836H99.234z"/>
								<rect x="100.074" y="80.106" class="st2" width="0.84" height="0.836"/>
								<path class="st2" d="M102.593,77.042v0.555h-0.84V76.79C102.05,76.832,102.332,76.918,102.593,77.042z"/>
								<path class="st2" d="M102.593,81.779v0.555c-0.261,0.124-0.543,0.21-0.84,0.252v-0.807H102.593z"/>
								<rect x="101.753" y="78.433" class="st2" width="0.84" height="0.836"/>
								<rect x="101.753" y="80.106" class="st2" width="0.84" height="0.836"/>
								<path class="st2" d="M104.242,79.269h-0.81v-0.836h0.557C104.113,78.693,104.2,78.974,104.242,79.269z"/>
								<path class="st2" d="M104.242,80.106c-0.042,0.295-0.129,0.576-0.253,0.836h-0.557v-0.836H104.242z"/>
								<rect x="99.234" y="80.942" class="st2" width="0.84" height="0.836"/>
								<rect x="100.913" y="80.942" class="st2" width="0.84" height="0.836"/>
								<rect x="102.593" y="80.942" class="st2" width="0.84" height="0.836"/>
							</g>
						</g>
					</g>
				</g>
				<g>
					<g>
						<g>
							<g>
								<rect x="109.901" y="45.722" class="st2" width="0.84" height="0.836"/>
								<path class="st2" d="M111.58,44.915v0.807h-0.84v-0.555C111.001,45.043,111.284,44.957,111.58,44.915z"/>
								<path class="st2" d="M111.58,49.903v0.807c-0.297-0.042-0.579-0.129-0.84-0.252v-0.555H111.58z"/>
								<rect x="111.58" y="45.722" class="st2" width="0.84" height="0.836"/>
								<rect x="113.259" y="45.722" class="st2" width="0.84" height="0.836"/>
								<path class="st2" d="M109.901,46.558v0.836h-0.81c0.042-0.295,0.129-0.576,0.253-0.836H109.901z"/>
								<rect x="110.74" y="46.558" class="st2" width="0.84" height="0.836"/>
								<rect x="109.901" y="47.394" class="st2" width="0.84" height="0.836"/>
								<rect x="111.58" y="47.394" class="st2" width="0.84" height="0.836"/>
								<rect x="113.259" y="47.394" class="st2" width="0.84" height="0.836"/>
								<path class="st2" d="M109.901,48.231v0.836h-0.557c-0.124-0.26-0.211-0.541-0.253-0.836H109.901z"/>
								<rect x="110.74" y="48.231" class="st2" width="0.84" height="0.836"/>
								<path class="st2" d="M113.259,45.167v0.555h-0.84v-0.807C112.716,44.957,112.998,45.043,113.259,45.167z"/>
								<path class="st2" d="M113.259,49.903v0.555c-0.261,0.124-0.543,0.21-0.84,0.252v-0.807H113.259z"/>
								<rect x="112.42" y="46.558" class="st2" width="0.84" height="0.836"/>
								<rect x="112.42" y="48.231" class="st2" width="0.84" height="0.836"/>
								<path class="st2" d="M114.909,47.394h-0.81v-0.836h0.557C114.78,46.818,114.867,47.099,114.909,47.394z"/>
								<path class="st2" d="M114.909,48.231c-0.042,0.295-0.129,0.576-0.253,0.836h-0.557v-0.836H114.909z"/>
								<rect x="109.901" y="49.067" class="st2" width="0.84" height="0.836"/>
								<rect x="111.58" y="49.067" class="st2" width="0.84" height="0.836"/>
								<rect x="113.259" y="49.067" class="st2" width="0.84" height="0.836"/>
							</g>
						</g>
						<g>
							<g>
								<rect x="120.567" y="56.347" class="st2" width="0.84" height="0.836"/>
								<path class="st2" d="M122.247,55.54v0.807h-0.84v-0.555C121.668,55.668,121.95,55.582,122.247,55.54z"/>
								<path class="st2" d="M122.247,60.528v0.807c-0.296-0.042-0.579-0.129-0.84-0.252v-0.555H122.247z"/>
								<rect x="122.247" y="56.347" class="st2" width="0.84" height="0.836"/>
								<rect x="123.926" y="56.347" class="st2" width="0.84" height="0.836"/>
								<path class="st2" d="M120.567,57.183v0.836h-0.81c0.042-0.295,0.129-0.576,0.253-0.836H120.567z"/>
								<rect x="121.407" y="57.183" class="st2" width="0.84" height="0.836"/>
								<rect x="120.567" y="58.019" class="st2" width="0.84" height="0.836"/>
								<rect x="122.247" y="58.019" class="st2" width="0.84" height="0.836"/>
								<rect x="123.926" y="58.019" class="st2" width="0.84" height="0.836"/>
								<path class="st2" d="M120.567,58.856v0.836h-0.557c-0.124-0.26-0.211-0.541-0.253-0.836H120.567z"/>
								<rect x="121.407" y="58.856" class="st2" width="0.84" height="0.836"/>
								<path class="st2" d="M123.926,55.792v0.555h-0.84V55.54C123.383,55.582,123.665,55.668,123.926,55.792z"/>
								<path class="st2" d="M123.926,60.528v0.555c-0.261,0.124-0.543,0.21-0.84,0.252v-0.807H123.926z"/>
								<rect x="123.086" y="57.183" class="st2" width="0.84" height="0.836"/>
								<rect x="123.086" y="58.856" class="st2" width="0.84" height="0.836"/>
								<path class="st2" d="M125.576,58.019h-0.81v-0.836h0.557C125.447,57.443,125.533,57.724,125.576,58.019z"/>
								<path class="st2" d="M125.576,58.856c-0.042,0.295-0.129,0.576-0.253,0.836h-0.557v-0.836H125.576z"/>
								<rect x="120.567" y="59.692" class="st2" width="0.84" height="0.836"/>
								<rect x="122.247" y="59.692" class="st2" width="0.84" height="0.836"/>
								<rect x="123.926" y="59.692" class="st2" width="0.84" height="0.836"/>
							</g>
						</g>
					</g>
					<g>
						<g>
							<g>
								<rect x="109.901" y="66.971" class="st2" width="0.84" height="0.836"/>
								<path class="st2" d="M111.58,66.165v0.807h-0.84v-0.555C111.001,66.293,111.284,66.207,111.58,66.165z"/>
								<path class="st2" d="M111.58,71.154v0.807c-0.297-0.042-0.579-0.128-0.84-0.252v-0.555H111.58z"/>
								<rect x="111.58" y="66.971" class="st2" width="0.84" height="0.836"/>
								<rect x="113.259" y="66.971" class="st2" width="0.84" height="0.836"/>
								<path class="st2" d="M109.901,67.808v0.836h-0.81c0.042-0.295,0.129-0.576,0.253-0.836H109.901z"/>
								<rect x="110.74" y="67.808" class="st2" width="0.84" height="0.836"/>
								<rect x="109.901" y="68.644" class="st2" width="0.84" height="0.836"/>
								<rect x="111.58" y="68.644" class="st2" width="0.84" height="0.836"/>
								<rect x="113.259" y="68.644" class="st2" width="0.84" height="0.836"/>
								<path class="st2" d="M109.901,69.481v0.836h-0.557c-0.124-0.26-0.211-0.541-0.253-0.836H109.901z"/>
								<rect x="110.74" y="69.481" class="st2" width="0.84" height="0.836"/>
								<path class="st2" d="M113.259,66.417v0.555h-0.84v-0.807C112.716,66.207,112.998,66.293,113.259,66.417z"/>
								<path class="st2" d="M113.259,71.154v0.555c-0.261,0.124-0.543,0.21-0.84,0.252v-0.807H113.259z"/>
								<rect x="112.42" y="67.808" class="st2" width="0.84" height="0.836"/>
								<rect x="112.42" y="69.481" class="st2" width="0.84" height="0.836"/>
								<path class="st2" d="M114.909,68.644h-0.81v-0.836h0.557C114.78,68.068,114.867,68.349,114.909,68.644z"/>
								<path class="st2" d="M114.909,69.481c-0.042,0.295-0.129,0.576-0.253,0.836h-0.557v-0.836H114.909z"/>
								<rect x="109.901" y="70.317" class="st2" width="0.84" height="0.836"/>
								<rect x="111.58" y="70.317" class="st2" width="0.84" height="0.836"/>
								<rect x="113.259" y="70.317" class="st2" width="0.84" height="0.836"/>
							</g>
						</g>
						<g>
							<g>
								<rect x="120.567" y="77.596" class="st2" width="0.84" height="0.836"/>
								<path class="st2" d="M122.247,76.79v0.807h-0.84v-0.555C121.668,76.918,121.95,76.832,122.247,76.79z"/>
								<path class="st2" d="M122.247,81.779v0.807c-0.296-0.042-0.579-0.128-0.84-0.252v-0.555H122.247z"/>
								<rect x="122.247" y="77.596" class="st2" width="0.84" height="0.836"/>
								<rect x="123.926" y="77.596" class="st2" width="0.84" height="0.836"/>
								<path class="st2" d="M120.567,78.433v0.836h-0.81c0.042-0.295,0.129-0.576,0.253-0.836H120.567z"/>
								<rect x="121.407" y="78.433" class="st2" width="0.84" height="0.836"/>
								<rect x="120.567" y="79.269" class="st2" width="0.84" height="0.836"/>
								<rect x="122.247" y="79.269" class="st2" width="0.84" height="0.836"/>
								<rect x="123.926" y="79.269" class="st2" width="0.84" height="0.836"/>
								<path class="st2" d="M120.567,80.106v0.836h-0.557c-0.124-0.26-0.211-0.541-0.253-0.836H120.567z"/>
								<rect x="121.407" y="80.106" class="st2" width="0.84" height="0.836"/>
								<path class="st2" d="M123.926,77.042v0.555h-0.84V76.79C123.383,76.832,123.665,76.918,123.926,77.042z"/>
								<path class="st2" d="M123.926,81.779v0.555c-0.261,0.124-0.543,0.21-0.84,0.252v-0.807H123.926z"/>
								<rect x="123.086" y="78.433" class="st2" width="0.84" height="0.836"/>
								<rect x="123.086" y="80.106" class="st2" width="0.84" height="0.836"/>
								<path class="st2" d="M125.576,79.269h-0.81v-0.836h0.557C125.447,78.693,125.533,78.974,125.576,79.269z"/>
								<path class="st2" d="M125.576,80.106c-0.042,0.295-0.129,0.576-0.253,0.836h-0.557v-0.836H125.576z"/>
								<rect x="120.567" y="80.942" class="st2" width="0.84" height="0.836"/>
								<rect x="122.247" y="80.942" class="st2" width="0.84" height="0.836"/>
								<rect x="123.926" y="80.942" class="st2" width="0.84" height="0.836"/>
							</g>
						</g>
					</g>
				</g>
			</g>
		</g>
	</g>
	<g>
		<path class="st1" d="M54.12,73.267h-7.075c-0.667,0-1.212-0.543-1.212-1.207l0,0c0-0.664,0.545-1.207,1.212-1.207h3.69
			c1.293,0,2.351-1.054,2.351-2.341l0,0c0-1.288-1.058-2.341-2.351-2.341h-9.607c-0.905,0-1.645-0.738-1.645-1.639l0,0
			c0-0.901,0.74-1.639,1.645-1.639h2.862c1.293,0,2.351-1.054,2.351-2.341l0,0c0-1.288-1.058-2.341-2.351-2.341H26.913
			c-1.293,0-2.351,1.054-2.351,2.341l0,0c0,1.288,1.058,2.341,2.351,2.341h4.916c0.905,0,1.645,0.738,1.645,1.639l0,0
			c0,0.901-0.741,1.639-1.645,1.639H17.834c-1.293,0-2.351,1.054-2.351,2.341l0,0c0,1.288,1.058,2.341,2.351,2.341h22.362
			c0.666,0,1.212,0.543,1.212,1.207l0,0c0,0.664-0.545,1.207-1.212,1.207h-1.731c-0.952,0-1.731,0.776-1.731,1.724l0,0
			c0,0.948,0.779,1.724,1.731,1.724H54.12c0.952,0,1.731-0.776,1.731-1.724l0,0C55.851,74.043,55.072,73.267,54.12,73.267z"/>
		<path class="st1" d="M24.525,9.147H17.49c-0.663,0-1.205-0.54-1.205-1.2l0,0c0-0.66,0.542-1.2,1.205-1.2h2.096
			c0.947,0,1.721-0.772,1.721-1.715l0,0c0-0.943-0.775-1.715-1.721-1.715H7.08c-0.947,0-1.721,0.772-1.721,1.715l0,0
			c0,0.943,0.775,1.715,1.721,1.715h3.6c0.663,0,1.205,0.54,1.205,1.2l0,0c0,0.66-0.542,1.2-1.205,1.2H8.959
			c-0.947,0-1.721,0.772-1.721,1.715l0,0c0,0.943,0.775,1.715,1.721,1.715h15.567c0.947,0,1.721-0.771,1.721-1.715l0,0
			C26.247,9.919,25.472,9.147,24.525,9.147z"/>
		<g>
			<g>
				<g>
					<g>
						<g>
							<g>
								<rect x="3.234" y="3.221" class="st2" width="0.84" height="0.836"/>
								<path class="st2" d="M4.913,2.415v0.807h-0.84V2.667C4.335,2.543,4.617,2.457,4.913,2.415z"/>
								<path class="st2" d="M4.913,7.403V8.21c-0.296-0.042-0.579-0.129-0.84-0.252V7.403H4.913z"/>
								<rect x="4.913" y="3.221" class="st2" width="0.84" height="0.836"/>
								<rect x="6.593" y="3.221" class="st2" width="0.84" height="0.836"/>
								<path class="st2" d="M3.234,4.058v0.836h-0.81c0.042-0.295,0.129-0.576,0.253-0.836H3.234z"/>
								<rect x="4.074" y="4.058" class="st2" width="0.84" height="0.836"/>
								<rect x="3.234" y="4.894" class="st2" width="0.84" height="0.836"/>
								<rect x="4.913" y="4.894" class="st2" width="0.84" height="0.836"/>
								<rect x="6.593" y="4.894" class="st2" width="0.84" height="0.836"/>
								<path class="st2" d="M3.234,5.731v0.836H2.677c-0.124-0.26-0.211-0.541-0.253-0.836H3.234z"/>
								<rect x="4.074" y="5.731" class="st2" width="0.84" height="0.836"/>
								<path class="st2" d="M6.593,2.667v0.555h-0.84V2.415C6.05,2.457,6.332,2.543,6.593,2.667z"/>
								<path class="st2" d="M6.593,7.403v0.555C6.332,8.082,6.05,8.168,5.753,8.21V7.403H6.593z"/>
								<rect x="5.753" y="4.058" class="st2" width="0.84" height="0.836"/>
								<rect x="5.753" y="5.731" class="st2" width="0.84" height="0.836"/>
								<path class="st2" d="M8.242,4.894h-0.81V4.058h0.557C8.113,4.318,8.2,4.599,8.242,4.894z"/>
								<path class="st2" d="M8.242,5.731C8.2,6.026,8.113,6.307,7.989,6.567H7.433V5.731H8.242z"/>
								<rect x="3.234" y="6.567" class="st2" width="0.84" height="0.836"/>
								<rect x="4.913" y="6.567" class="st2" width="0.84" height="0.836"/>
								<rect x="6.593" y="6.567" class="st2" width="0.84" height="0.836"/>
							</g>
						</g>
						<g>
							<g>
								<rect x="13.901" y="13.847" class="st2" width="0.84" height="0.836"/>
								<path class="st2" d="M15.58,13.04v0.807h-0.84v-0.555C15.002,13.168,15.284,13.082,15.58,13.04z"/>
								<path class="st2" d="M15.58,18.028v0.807c-0.297-0.042-0.579-0.128-0.84-0.252v-0.555H15.58z"/>
								<rect x="15.58" y="13.847" class="st2" width="0.84" height="0.836"/>
								<rect x="17.26" y="13.847" class="st2" width="0.84" height="0.836"/>
								<path class="st2" d="M13.901,14.683v0.836h-0.81c0.042-0.295,0.129-0.576,0.253-0.836H13.901z"/>
								<rect x="14.741" y="14.683" class="st2" width="0.84" height="0.836"/>
								<rect x="13.901" y="15.519" class="st2" width="0.84" height="0.836"/>
								<rect x="15.58" y="15.519" class="st2" width="0.84" height="0.836"/>
								<rect x="17.26" y="15.519" class="st2" width="0.84" height="0.836"/>
								<path class="st2" d="M13.901,16.356v0.836h-0.557c-0.124-0.26-0.211-0.541-0.253-0.836H13.901z"/>
								<rect x="14.741" y="16.356" class="st2" width="0.84" height="0.836"/>
								<path class="st2" d="M17.26,13.292v0.555h-0.84V13.04C16.716,13.082,16.999,13.168,17.26,13.292z"/>
								<path class="st2" d="M17.26,18.028v0.555c-0.261,0.123-0.543,0.21-0.84,0.252v-0.807H17.26z"/>
								<rect x="16.42" y="14.683" class="st2" width="0.84" height="0.836"/>
								<rect x="16.42" y="16.356" class="st2" width="0.84" height="0.836"/>
								<path class="st2" d="M18.909,15.519h-0.81v-0.836h0.557C18.78,14.943,18.867,15.224,18.909,15.519z"/>
								<path class="st2" d="M18.909,16.356c-0.042,0.295-0.129,0.576-0.253,0.836h-0.557v-0.836H18.909z"/>
								<rect x="13.901" y="17.192" class="st2" width="0.84" height="0.836"/>
								<rect x="15.58" y="17.192" class="st2" width="0.84" height="0.836"/>
								<rect x="17.26" y="17.192" class="st2" width="0.84" height="0.836"/>
							</g>
						</g>
					</g>
					<g>
						<g>
							<g>
								<rect x="3.234" y="24.472" class="st2" width="0.84" height="0.836"/>
								<path class="st2" d="M4.913,23.665v0.807h-0.84v-0.555C4.335,23.793,4.617,23.707,4.913,23.665z"/>
								<path class="st2" d="M4.913,28.653v0.807c-0.296-0.042-0.579-0.128-0.84-0.252v-0.555H4.913z"/>
								<rect x="4.913" y="24.472" class="st2" width="0.84" height="0.836"/>
								<rect x="6.593" y="24.472" class="st2" width="0.84" height="0.836"/>
								<path class="st2" d="M3.234,25.308v0.836h-0.81c0.042-0.295,0.129-0.576,0.253-0.836H3.234z"/>
								<rect x="4.074" y="25.308" class="st2" width="0.84" height="0.836"/>
								<rect x="3.234" y="26.144" class="st2" width="0.84" height="0.836"/>
								<rect x="4.913" y="26.144" class="st2" width="0.84" height="0.836"/>
								<rect x="6.593" y="26.144" class="st2" width="0.84" height="0.836"/>
								<path class="st2" d="M3.234,26.981v0.836H2.677c-0.124-0.26-0.211-0.541-0.253-0.836H3.234z"/>
								<rect x="4.074" y="26.981" class="st2" width="0.84" height="0.836"/>
								<path class="st2" d="M6.593,23.917v0.555h-0.84v-0.807C6.05,23.707,6.332,23.793,6.593,23.917z"/>
								<path class="st2" d="M6.593,28.653v0.555c-0.261,0.123-0.543,0.21-0.84,0.252v-0.807H6.593z"/>
								<rect x="5.753" y="25.308" class="st2" width="0.84" height="0.836"/>
								<rect x="5.753" y="26.981" class="st2" width="0.84" height="0.836"/>
								<path class="st2" d="M8.242,26.144h-0.81v-0.836h0.557C8.113,25.568,8.2,25.849,8.242,26.144z"/>
								<path class="st2" d="M8.242,26.981c-0.042,0.295-0.129,0.576-0.253,0.836H7.433v-0.836H8.242z"/>
								<rect x="3.234" y="27.817" class="st2" width="0.84" height="0.836"/>
								<rect x="4.913" y="27.817" class="st2" width="0.84" height="0.836"/>
								<rect x="6.593" y="27.817" class="st2" width="0.84" height="0.836"/>
							</g>
						</g>
						<g>
							<g>
								<rect x="13.901" y="35.097" class="st2" width="0.84" height="0.836"/>
								<path class="st2" d="M15.58,34.29v0.807h-0.84v-0.555C15.002,34.418,15.284,34.332,15.58,34.29z"/>
								<path class="st2" d="M15.58,39.278v0.807c-0.297-0.042-0.579-0.129-0.84-0.252v-0.555H15.58z"/>
								<rect x="15.58" y="35.097" class="st2" width="0.84" height="0.836"/>
								<rect x="17.26" y="35.097" class="st2" width="0.84" height="0.836"/>
								<path class="st2" d="M13.901,35.933v0.836h-0.81c0.042-0.295,0.129-0.576,0.253-0.836H13.901z"/>
								<rect x="14.741" y="35.933" class="st2" width="0.84" height="0.836"/>
								<rect x="13.901" y="36.769" class="st2" width="0.84" height="0.836"/>
								<rect x="15.58" y="36.769" class="st2" width="0.84" height="0.836"/>
								<rect x="17.26" y="36.769" class="st2" width="0.84" height="0.836"/>
								<path class="st2" d="M13.901,37.606v0.836h-0.557c-0.124-0.26-0.211-0.541-0.253-0.836H13.901z"/>
								<rect x="14.741" y="37.606" class="st2" width="0.84" height="0.836"/>
								<path class="st2" d="M17.26,34.542v0.555h-0.84V34.29C16.716,34.332,16.999,34.418,17.26,34.542z"/>
								<path class="st2" d="M17.26,39.278v0.555c-0.261,0.124-0.543,0.21-0.84,0.252v-0.807H17.26z"/>
								<rect x="16.42" y="35.933" class="st2" width="0.84" height="0.836"/>
								<rect x="16.42" y="37.606" class="st2" width="0.84" height="0.836"/>
								<path class="st2" d="M18.909,36.769h-0.81v-0.836h0.557C18.78,36.193,18.867,36.474,18.909,36.769z"/>
								<path class="st2" d="M18.909,37.606c-0.042,0.295-0.129,0.576-0.253,0.836h-0.557v-0.836H18.909z"/>
								<rect x="13.901" y="38.442" class="st2" width="0.84" height="0.836"/>
								<rect x="15.58" y="38.442" class="st2" width="0.84" height="0.836"/>
								<rect x="17.26" y="38.442" class="st2" width="0.84" height="0.836"/>
							</g>
						</g>
					</g>
				</g>
				<g>
					<g>
						<g>
							<g>
								<rect x="24.567" y="3.221" class="st2" width="0.84" height="0.836"/>
								<path class="st2" d="M26.247,2.415v0.807h-0.84V2.667C25.668,2.543,25.95,2.457,26.247,2.415z"/>
								<path class="st2" d="M26.247,7.403V8.21c-0.296-0.042-0.579-0.129-0.84-0.252V7.403H26.247z"/>
								<rect x="26.247" y="3.221" class="st2" width="0.84" height="0.836"/>
								<rect x="27.926" y="3.221" class="st2" width="0.84" height="0.836"/>
								<path class="st2" d="M24.567,4.058v0.836h-0.81c0.042-0.295,0.129-0.576,0.253-0.836H24.567z"/>
								<rect x="25.407" y="4.058" class="st2" width="0.84" height="0.836"/>
								<rect x="24.567" y="4.894" class="st2" width="0.84" height="0.836"/>
								<rect x="26.247" y="4.894" class="st2" width="0.84" height="0.836"/>
								<rect x="27.926" y="4.894" class="st2" width="0.84" height="0.836"/>
								<path class="st2" d="M24.567,5.731v0.836h-0.557c-0.124-0.26-0.211-0.541-0.253-0.836H24.567z"/>
								<rect x="25.407" y="5.731" class="st2" width="0.84" height="0.836"/>
								<path class="st2" d="M27.926,2.667v0.555h-0.84V2.415C27.383,2.457,27.665,2.543,27.926,2.667z"/>
								<path class="st2" d="M27.926,7.403v0.555c-0.261,0.123-0.543,0.21-0.84,0.252V7.403H27.926z"/>
								<rect x="27.087" y="4.058" class="st2" width="0.84" height="0.836"/>
								<rect x="27.087" y="5.731" class="st2" width="0.84" height="0.836"/>
								<path class="st2" d="M29.576,4.894h-0.81V4.058h0.557C29.447,4.318,29.533,4.599,29.576,4.894z"/>
								<path class="st2" d="M29.576,5.731c-0.042,0.295-0.129,0.576-0.253,0.836h-0.557V5.731H29.576z"/>
								<rect x="24.567" y="6.567" class="st2" width="0.84" height="0.836"/>
								<rect x="26.247" y="6.567" class="st2" width="0.84" height="0.836"/>
								<rect x="27.926" y="6.567" class="st2" width="0.84" height="0.836"/>
							</g>
						</g>
						<g>
							<g>
								<rect x="35.234" y="13.847" class="st2" width="0.84" height="0.836"/>
								<path class="st2" d="M36.914,13.04v0.807h-0.84v-0.555C36.335,13.168,36.617,13.082,36.914,13.04z"/>
								<path class="st2" d="M36.914,18.028v0.807c-0.297-0.042-0.579-0.128-0.84-0.252v-0.555H36.914z"/>
								<rect x="36.914" y="13.847" class="st2" width="0.84" height="0.836"/>
								<rect x="38.593" y="13.847" class="st2" width="0.84" height="0.836"/>
								<path class="st2" d="M35.234,14.683v0.836h-0.81c0.042-0.295,0.129-0.576,0.253-0.836H35.234z"/>
								<rect x="36.074" y="14.683" class="st2" width="0.84" height="0.836"/>
								<rect x="35.234" y="15.519" class="st2" width="0.84" height="0.836"/>
								<rect x="36.914" y="15.519" class="st2" width="0.84" height="0.836"/>
								<rect x="38.593" y="15.519" class="st2" width="0.84" height="0.836"/>
								<path class="st2" d="M35.234,16.356v0.836h-0.557c-0.124-0.26-0.211-0.541-0.253-0.836H35.234z"/>
								<rect x="36.074" y="16.356" class="st2" width="0.84" height="0.836"/>
								<path class="st2" d="M38.593,13.292v0.555h-0.84V13.04C38.05,13.082,38.332,13.168,38.593,13.292z"/>
								<path class="st2" d="M38.593,18.028v0.555c-0.261,0.123-0.543,0.21-0.84,0.252v-0.807H38.593z"/>
								<rect x="37.753" y="14.683" class="st2" width="0.84" height="0.836"/>
								<rect x="37.753" y="16.356" class="st2" width="0.84" height="0.836"/>
								<path class="st2" d="M40.242,15.519h-0.81v-0.836h0.557C40.113,14.943,40.2,15.224,40.242,15.519z"/>
								<path class="st2" d="M40.242,16.356c-0.042,0.295-0.129,0.576-0.253,0.836h-0.557v-0.836H40.242z"/>
								<rect x="35.234" y="17.192" class="st2" width="0.84" height="0.836"/>
								<rect x="36.914" y="17.192" class="st2" width="0.84" height="0.836"/>
								<rect x="38.593" y="17.192" class="st2" width="0.84" height="0.836"/>
							</g>
						</g>
					</g>
					<g>
						<g>
							<g>
								<rect x="24.567" y="24.472" class="st2" width="0.84" height="0.836"/>
								<path class="st2" d="M26.247,23.665v0.807h-0.84v-0.555C25.668,23.793,25.95,23.707,26.247,23.665z"/>
								<path class="st2" d="M26.247,28.653v0.807c-0.296-0.042-0.579-0.128-0.84-0.252v-0.555H26.247z"/>
								<rect x="26.247" y="24.472" class="st2" width="0.84" height="0.836"/>
								<rect x="27.926" y="24.472" class="st2" width="0.84" height="0.836"/>
								<path class="st2" d="M24.567,25.308v0.836h-0.81c0.042-0.295,0.129-0.576,0.253-0.836H24.567z"/>
								<rect x="25.407" y="25.308" class="st2" width="0.84" height="0.836"/>
								<rect x="24.567" y="26.144" class="st2" width="0.84" height="0.836"/>
								<rect x="26.247" y="26.144" class="st2" width="0.84" height="0.836"/>
								<rect x="27.926" y="26.144" class="st2" width="0.84" height="0.836"/>
								<path class="st2" d="M24.567,26.981v0.836h-0.557c-0.124-0.26-0.211-0.541-0.253-0.836H24.567z"/>
								<rect x="25.407" y="26.981" class="st2" width="0.84" height="0.836"/>
								<path class="st2" d="M27.926,23.917v0.555h-0.84v-0.807C27.383,23.707,27.665,23.793,27.926,23.917z"/>
								<path class="st2" d="M27.926,28.653v0.555c-0.261,0.123-0.543,0.21-0.84,0.252v-0.807H27.926z"/>
								<rect x="27.087" y="25.308" class="st2" width="0.84" height="0.836"/>
								<rect x="27.087" y="26.981" class="st2" width="0.84" height="0.836"/>
								<path class="st2" d="M29.576,26.144h-0.81v-0.836h0.557C29.447,25.568,29.533,25.849,29.576,26.144z"/>
								<path class="st2" d="M29.576,26.981c-0.042,0.295-0.129,0.576-0.253,0.836h-0.557v-0.836H29.576z"/>
								<rect x="24.567" y="27.817" class="st2" width="0.84" height="0.836"/>
								<rect x="26.247" y="27.817" class="st2" width="0.84" height="0.836"/>
								<rect x="27.926" y="27.817" class="st2" width="0.84" height="0.836"/>
							</g>
						</g>
						<g>
							<g>
								<rect x="35.234" y="35.097" class="st2" width="0.84" height="0.836"/>
								<path class="st2" d="M36.914,34.29v0.807h-0.84v-0.555C36.335,34.418,36.617,34.332,36.914,34.29z"/>
								<path class="st2" d="M36.914,39.278v0.807c-0.297-0.042-0.579-0.129-0.84-0.252v-0.555H36.914z"/>
								<rect x="36.914" y="35.097" class="st2" width="0.84" height="0.836"/>
								<rect x="38.593" y="35.097" class="st2" width="0.84" height="0.836"/>
								<path class="st2" d="M35.234,35.933v0.836h-0.81c0.042-0.295,0.129-0.576,0.253-0.836H35.234z"/>
								<rect x="36.074" y="35.933" class="st2" width="0.84" height="0.836"/>
								<rect x="35.234" y="36.769" class="st2" width="0.84" height="0.836"/>
								<rect x="36.914" y="36.769" class="st2" width="0.84" height="0.836"/>
								<rect x="38.593" y="36.769" class="st2" width="0.84" height="0.836"/>
								<path class="st2" d="M35.234,37.606v0.836h-0.557c-0.124-0.26-0.211-0.541-0.253-0.836H35.234z"/>
								<rect x="36.074" y="37.606" class="st2" width="0.84" height="0.836"/>
								<path class="st2" d="M38.593,34.542v0.555h-0.84V34.29C38.05,34.332,38.332,34.418,38.593,34.542z"/>
								<path class="st2" d="M38.593,39.278v0.555c-0.261,0.124-0.543,0.21-0.84,0.252v-0.807H38.593z"/>
								<rect x="37.753" y="35.933" class="st2" width="0.84" height="0.836"/>
								<rect x="37.753" y="37.606" class="st2" width="0.84" height="0.836"/>
								<path class="st2" d="M40.242,36.769h-0.81v-0.836h0.557C40.113,36.193,40.2,36.474,40.242,36.769z"/>
								<path class="st2" d="M40.242,37.606c-0.042,0.295-0.129,0.576-0.253,0.836h-0.557v-0.836H40.242z"/>
								<rect x="35.234" y="38.442" class="st2" width="0.84" height="0.836"/>
								<rect x="36.914" y="38.442" class="st2" width="0.84" height="0.836"/>
								<rect x="38.593" y="38.442" class="st2" width="0.84" height="0.836"/>
							</g>
						</g>
					</g>
				</g>
				<g>
					<g>
						<g>
							<g>
								<rect x="45.901" y="3.221" class="st2" width="0.84" height="0.836"/>
								<path class="st2" d="M47.58,2.415v0.807h-0.84V2.667C47.001,2.543,47.284,2.457,47.58,2.415z"/>
								<path class="st2" d="M47.58,7.403V8.21c-0.297-0.042-0.579-0.129-0.84-0.252V7.403H47.58z"/>
								<rect x="47.58" y="3.221" class="st2" width="0.84" height="0.836"/>
								<rect x="49.259" y="3.221" class="st2" width="0.84" height="0.836"/>
								<path class="st2" d="M45.901,4.058v0.836h-0.81c0.042-0.295,0.129-0.576,0.253-0.836H45.901z"/>
								<rect x="46.741" y="4.058" class="st2" width="0.84" height="0.836"/>
								<rect x="45.901" y="4.894" class="st2" width="0.84" height="0.836"/>
								<rect x="47.58" y="4.894" class="st2" width="0.84" height="0.836"/>
								<rect x="49.259" y="4.894" class="st2" width="0.84" height="0.836"/>
								<path class="st2" d="M45.901,5.731v0.836h-0.557c-0.124-0.26-0.211-0.541-0.253-0.836H45.901z"/>
								<rect x="46.741" y="5.731" class="st2" width="0.84" height="0.836"/>
								<path class="st2" d="M49.259,2.667v0.555h-0.84V2.415C48.716,2.457,48.999,2.543,49.259,2.667z"/>
								<path class="st2" d="M49.259,7.403v0.555c-0.261,0.123-0.543,0.21-0.84,0.252V7.403H49.259z"/>
								<rect x="48.42" y="4.058" class="st2" width="0.84" height="0.836"/>
								<rect x="48.42" y="5.731" class="st2" width="0.84" height="0.836"/>
								<path class="st2" d="M50.909,4.894h-0.81V4.058h0.557C50.78,4.318,50.867,4.599,50.909,4.894z"/>
								<path class="st2" d="M50.909,5.731c-0.042,0.295-0.129,0.576-0.253,0.836h-0.557V5.731H50.909z"/>
								<rect x="45.901" y="6.567" class="st2" width="0.84" height="0.836"/>
								<rect x="47.58" y="6.567" class="st2" width="0.84" height="0.836"/>
								<rect x="49.259" y="6.567" class="st2" width="0.84" height="0.836"/>
							</g>
						</g>
						<g>
							<g>
								<rect x="56.568" y="13.847" class="st2" width="0.84" height="0.836"/>
								<path class="st2" d="M58.247,13.04v0.807h-0.84v-0.555C57.668,13.168,57.95,13.082,58.247,13.04z"/>
								<path class="st2" d="M58.247,18.028v0.807c-0.296-0.042-0.579-0.128-0.84-0.252v-0.555H58.247z"/>
								<rect x="58.247" y="13.847" class="st2" width="0.84" height="0.836"/>
								<rect x="59.926" y="13.847" class="st2" width="0.84" height="0.836"/>
								<path class="st2" d="M56.568,14.683v0.836h-0.81c0.042-0.295,0.129-0.576,0.253-0.836H56.568z"/>
								<rect x="57.407" y="14.683" class="st2" width="0.84" height="0.836"/>
								<rect x="56.568" y="15.519" class="st2" width="0.84" height="0.836"/>
								<rect x="58.247" y="15.519" class="st2" width="0.84" height="0.836"/>
								<rect x="59.926" y="15.519" class="st2" width="0.84" height="0.836"/>
								<path class="st2" d="M56.568,16.356v0.836h-0.557c-0.124-0.26-0.211-0.541-0.253-0.836H56.568z"/>
								<rect x="57.407" y="16.356" class="st2" width="0.84" height="0.836"/>
								<path class="st2" d="M59.926,13.292v0.555h-0.84V13.04C59.383,13.082,59.665,13.168,59.926,13.292z"/>
								<path class="st2" d="M59.926,18.028v0.555c-0.261,0.123-0.543,0.21-0.84,0.252v-0.807H59.926z"/>
								<rect x="59.086" y="14.683" class="st2" width="0.84" height="0.836"/>
								<rect x="59.086" y="16.356" class="st2" width="0.84" height="0.836"/>
								<path class="st2" d="M61.576,15.519h-0.81v-0.836h0.557C61.447,14.943,61.533,15.224,61.576,15.519z"/>
								<path class="st2" d="M61.576,16.356c-0.042,0.295-0.129,0.576-0.253,0.836h-0.557v-0.836H61.576z"/>
								<rect x="56.568" y="17.192" class="st2" width="0.84" height="0.836"/>
								<rect x="58.247" y="17.192" class="st2" width="0.84" height="0.836"/>
								<rect x="59.926" y="17.192" class="st2" width="0.84" height="0.836"/>
							</g>
						</g>
					</g>
					<g>
						<g>
							<g>
								<rect x="45.901" y="24.472" class="st2" width="0.84" height="0.836"/>
								<path class="st2" d="M47.58,23.665v0.807h-0.84v-0.555C47.001,23.793,47.284,23.707,47.58,23.665z"/>
								<path class="st2" d="M47.58,28.653v0.807c-0.297-0.042-0.579-0.128-0.84-0.252v-0.555H47.58z"/>
								<rect x="47.58" y="24.472" class="st2" width="0.84" height="0.836"/>
								<rect x="49.259" y="24.472" class="st2" width="0.84" height="0.836"/>
								<path class="st2" d="M45.901,25.308v0.836h-0.81c0.042-0.295,0.129-0.576,0.253-0.836H45.901z"/>
								<rect x="46.741" y="25.308" class="st2" width="0.84" height="0.836"/>
								<rect x="45.901" y="26.144" class="st2" width="0.84" height="0.836"/>
								<rect x="47.58" y="26.144" class="st2" width="0.84" height="0.836"/>
								<rect x="49.259" y="26.144" class="st2" width="0.84" height="0.836"/>
								<path class="st2" d="M45.901,26.981v0.836h-0.557c-0.124-0.26-0.211-0.541-0.253-0.836H45.901z"/>
								<rect x="46.741" y="26.981" class="st2" width="0.84" height="0.836"/>
								<path class="st2" d="M49.259,23.917v0.555h-0.84v-0.807C48.716,23.707,48.999,23.793,49.259,23.917z"/>
								<path class="st2" d="M49.259,28.653v0.555c-0.261,0.123-0.543,0.21-0.84,0.252v-0.807H49.259z"/>
								<rect x="48.42" y="25.308" class="st2" width="0.84" height="0.836"/>
								<rect x="48.42" y="26.981" class="st2" width="0.84" height="0.836"/>
								<path class="st2" d="M50.909,26.144h-0.81v-0.836h0.557C50.78,25.568,50.867,25.849,50.909,26.144z"/>
								<path class="st2" d="M50.909,26.981c-0.042,0.295-0.129,0.576-0.253,0.836h-0.557v-0.836H50.909z"/>
								<rect x="45.901" y="27.817" class="st2" width="0.84" height="0.836"/>
								<rect x="47.58" y="27.817" class="st2" width="0.84" height="0.836"/>
								<rect x="49.259" y="27.817" class="st2" width="0.84" height="0.836"/>
							</g>
						</g>
						<g>
							<g>
								<rect x="56.568" y="35.097" class="st2" width="0.84" height="0.836"/>
								<path class="st2" d="M58.247,34.29v0.807h-0.84v-0.555C57.668,34.418,57.95,34.332,58.247,34.29z"/>
								<path class="st2" d="M58.247,39.278v0.807c-0.296-0.042-0.579-0.129-0.84-0.252v-0.555H58.247z"/>
								<rect x="58.247" y="35.097" class="st2" width="0.84" height="0.836"/>
								<rect x="59.926" y="35.097" class="st2" width="0.84" height="0.836"/>
								<path class="st2" d="M56.568,35.933v0.836h-0.81c0.042-0.295,0.129-0.576,0.253-0.836H56.568z"/>
								<rect x="57.407" y="35.933" class="st2" width="0.84" height="0.836"/>
								<rect x="56.568" y="36.769" class="st2" width="0.84" height="0.836"/>
								<rect x="58.247" y="36.769" class="st2" width="0.84" height="0.836"/>
								<rect x="59.926" y="36.769" class="st2" width="0.84" height="0.836"/>
								<path class="st2" d="M56.568,37.606v0.836h-0.557c-0.124-0.26-0.211-0.541-0.253-0.836H56.568z"/>
								<rect x="57.407" y="37.606" class="st2" width="0.84" height="0.836"/>
								<path class="st2" d="M59.926,34.542v0.555h-0.84V34.29C59.383,34.332,59.665,34.418,59.926,34.542z"/>
								<path class="st2" d="M59.926,39.278v0.555c-0.261,0.124-0.543,0.21-0.84,0.252v-0.807H59.926z"/>
								<rect x="59.086" y="35.933" class="st2" width="0.84" height="0.836"/>
								<rect x="59.086" y="37.606" class="st2" width="0.84" height="0.836"/>
								<path class="st2" d="M61.576,36.769h-0.81v-0.836h0.557C61.447,36.193,61.533,36.474,61.576,36.769z"/>
								<path class="st2" d="M61.576,37.606c-0.042,0.295-0.129,0.576-0.253,0.836h-0.557v-0.836H61.576z"/>
								<rect x="56.568" y="38.442" class="st2" width="0.84" height="0.836"/>
								<rect x="58.247" y="38.442" class="st2" width="0.84" height="0.836"/>
								<rect x="59.926" y="38.442" class="st2" width="0.84" height="0.836"/>
							</g>
						</g>
					</g>
				</g>
			</g>
			<g>
				<g>
					<g>
						<g>
							<g>
								<rect x="3.234" y="45.722" class="st2" width="0.84" height="0.836"/>
								<path class="st2" d="M4.913,44.915v0.807h-0.84v-0.555C4.335,45.043,4.617,44.957,4.913,44.915z"/>
								<path class="st2" d="M4.913,49.903v0.807c-0.296-0.042-0.579-0.129-0.84-0.252v-0.555H4.913z"/>
								<rect x="4.913" y="45.722" class="st2" width="0.84" height="0.836"/>
								<rect x="6.593" y="45.722" class="st2" width="0.84" height="0.836"/>
								<path class="st2" d="M3.234,46.558v0.836h-0.81c0.042-0.295,0.129-0.576,0.253-0.836H3.234z"/>
								<rect x="4.074" y="46.558" class="st2" width="0.84" height="0.836"/>
								<rect x="3.234" y="47.394" class="st2" width="0.84" height="0.836"/>
								<rect x="4.913" y="47.394" class="st2" width="0.84" height="0.836"/>
								<rect x="6.593" y="47.394" class="st2" width="0.84" height="0.836"/>
								<path class="st2" d="M3.234,48.231v0.836H2.677c-0.124-0.26-0.211-0.541-0.253-0.836H3.234z"/>
								<rect x="4.074" y="48.231" class="st2" width="0.84" height="0.836"/>
								<path class="st2" d="M6.593,45.167v0.555h-0.84v-0.807C6.05,44.957,6.332,45.043,6.593,45.167z"/>
								<path class="st2" d="M6.593,49.903v0.555c-0.261,0.124-0.543,0.21-0.84,0.252v-0.807H6.593z"/>
								<rect x="5.753" y="46.558" class="st2" width="0.84" height="0.836"/>
								<rect x="5.753" y="48.231" class="st2" width="0.84" height="0.836"/>
								<path class="st2" d="M8.242,47.394h-0.81v-0.836h0.557C8.113,46.818,8.2,47.099,8.242,47.394z"/>
								<path class="st2" d="M8.242,48.231c-0.042,0.295-0.129,0.576-0.253,0.836H7.433v-0.836H8.242z"/>
								<rect x="3.234" y="49.067" class="st2" width="0.84" height="0.836"/>
								<rect x="4.913" y="49.067" class="st2" width="0.84" height="0.836"/>
								<rect x="6.593" y="49.067" class="st2" width="0.84" height="0.836"/>
							</g>
						</g>
						<g>
							<g>
								<rect x="13.901" y="56.347" class="st2" width="0.84" height="0.836"/>
								<path class="st2" d="M15.58,55.54v0.807h-0.84v-0.555C15.002,55.668,15.284,55.582,15.58,55.54z"/>
								<path class="st2" d="M15.58,60.528v0.807c-0.297-0.042-0.579-0.129-0.84-0.252v-0.555H15.58z"/>
								<rect x="15.58" y="56.347" class="st2" width="0.84" height="0.836"/>
								<rect x="17.26" y="56.347" class="st2" width="0.84" height="0.836"/>
								<path class="st2" d="M13.901,57.183v0.836h-0.81c0.042-0.295,0.129-0.576,0.253-0.836H13.901z"/>
								<rect x="14.741" y="57.183" class="st2" width="0.84" height="0.836"/>
								<rect x="13.901" y="58.019" class="st2" width="0.84" height="0.836"/>
								<rect x="15.58" y="58.019" class="st2" width="0.84" height="0.836"/>
								<rect x="17.26" y="58.019" class="st2" width="0.84" height="0.836"/>
								<path class="st2" d="M13.901,58.856v0.836h-0.557c-0.124-0.26-0.211-0.541-0.253-0.836H13.901z"/>
								<rect x="14.741" y="58.856" class="st2" width="0.84" height="0.836"/>
								<path class="st2" d="M17.26,55.792v0.555h-0.84V55.54C16.716,55.582,16.999,55.668,17.26,55.792z"/>
								<path class="st2" d="M17.26,60.528v0.555c-0.261,0.124-0.543,0.21-0.84,0.252v-0.807H17.26z"/>
								<rect x="16.42" y="57.183" class="st2" width="0.84" height="0.836"/>
								<rect x="16.42" y="58.856" class="st2" width="0.84" height="0.836"/>
								<path class="st2" d="M18.909,58.019h-0.81v-0.836h0.557C18.78,57.443,18.867,57.724,18.909,58.019z"/>
								<path class="st2" d="M18.909,58.856c-0.042,0.295-0.129,0.576-0.253,0.836h-0.557v-0.836H18.909z"/>
								<rect x="13.901" y="59.692" class="st2" width="0.84" height="0.836"/>
								<rect x="15.58" y="59.692" class="st2" width="0.84" height="0.836"/>
								<rect x="17.26" y="59.692" class="st2" width="0.84" height="0.836"/>
							</g>
						</g>
					</g>
					<g>
						<g>
							<g>
								<rect x="3.234" y="66.971" class="st2" width="0.84" height="0.836"/>
								<path class="st2" d="M4.913,66.165v0.807h-0.84v-0.555C4.335,66.293,4.617,66.207,4.913,66.165z"/>
								<path class="st2" d="M4.913,71.154v0.807c-0.296-0.042-0.579-0.128-0.84-0.252v-0.555H4.913z"/>
								<rect x="4.913" y="66.971" class="st2" width="0.84" height="0.836"/>
								<rect x="6.593" y="66.971" class="st2" width="0.84" height="0.836"/>
								<path class="st2" d="M3.234,67.808v0.836h-0.81c0.042-0.295,0.129-0.576,0.253-0.836H3.234z"/>
								<rect x="4.074" y="67.808" class="st2" width="0.84" height="0.836"/>
								<rect x="3.234" y="68.644" class="st2" width="0.84" height="0.836"/>
								<rect x="4.913" y="68.644" class="st2" width="0.84" height="0.836"/>
								<rect x="6.593" y="68.644" class="st2" width="0.84" height="0.836"/>
								<path class="st2" d="M3.234,69.481v0.836H2.677c-0.124-0.26-0.211-0.541-0.253-0.836H3.234z"/>
								<rect x="4.074" y="69.481" class="st2" width="0.84" height="0.836"/>
								<path class="st2" d="M6.593,66.417v0.555h-0.84v-0.807C6.05,66.207,6.332,66.293,6.593,66.417z"/>
								<path class="st2" d="M6.593,71.154v0.555c-0.261,0.124-0.543,0.21-0.84,0.252v-0.807H6.593z"/>
								<rect x="5.753" y="67.808" class="st2" width="0.84" height="0.836"/>
								<rect x="5.753" y="69.481" class="st2" width="0.84" height="0.836"/>
								<path class="st2" d="M8.242,68.644h-0.81v-0.836h0.557C8.113,68.068,8.2,68.349,8.242,68.644z"/>
								<path class="st2" d="M8.242,69.481c-0.042,0.295-0.129,0.576-0.253,0.836H7.433v-0.836H8.242z"/>
								<rect x="3.234" y="70.317" class="st2" width="0.84" height="0.836"/>
								<rect x="4.913" y="70.317" class="st2" width="0.84" height="0.836"/>
								<rect x="6.593" y="70.317" class="st2" width="0.84" height="0.836"/>
							</g>
						</g>
						<g>
							<g>
								<rect x="13.901" y="77.596" class="st2" width="0.84" height="0.836"/>
								<path class="st2" d="M15.58,76.79v0.807h-0.84v-0.555C15.002,76.918,15.284,76.832,15.58,76.79z"/>
								<path class="st2" d="M15.58,81.779v0.807c-0.297-0.042-0.579-0.128-0.84-0.252v-0.555H15.58z"/>
								<rect x="15.58" y="77.596" class="st2" width="0.84" height="0.836"/>
								<rect x="17.26" y="77.596" class="st2" width="0.84" height="0.836"/>
								<path class="st2" d="M13.901,78.433v0.836h-0.81c0.042-0.295,0.129-0.576,0.253-0.836H13.901z"/>
								<rect x="14.741" y="78.433" class="st2" width="0.84" height="0.836"/>
								<rect x="13.901" y="79.269" class="st2" width="0.84" height="0.836"/>
								<rect x="15.58" y="79.269" class="st2" width="0.84" height="0.836"/>
								<rect x="17.26" y="79.269" class="st2" width="0.84" height="0.836"/>
								<path class="st2" d="M13.901,80.106v0.836h-0.557c-0.124-0.26-0.211-0.541-0.253-0.836H13.901z"/>
								<rect x="14.741" y="80.106" class="st2" width="0.84" height="0.836"/>
								<path class="st2" d="M17.26,77.042v0.555h-0.84V76.79C16.716,76.832,16.999,76.918,17.26,77.042z"/>
								<path class="st2" d="M17.26,81.779v0.555c-0.261,0.124-0.543,0.21-0.84,0.252v-0.807H17.26z"/>
								<rect x="16.42" y="78.433" class="st2" width="0.84" height="0.836"/>
								<rect x="16.42" y="80.106" class="st2" width="0.84" height="0.836"/>
								<path class="st2" d="M18.909,79.269h-0.81v-0.836h0.557C18.78,78.693,18.867,78.974,18.909,79.269z"/>
								<path class="st2" d="M18.909,80.106c-0.042,0.295-0.129,0.576-0.253,0.836h-0.557v-0.836H18.909z"/>
								<rect x="13.901" y="80.942" class="st2" width="0.84" height="0.836"/>
								<rect x="15.58" y="80.942" class="st2" width="0.84" height="0.836"/>
								<rect x="17.26" y="80.942" class="st2" width="0.84" height="0.836"/>
							</g>
						</g>
					</g>
				</g>
				<g>
					<g>
						<g>
							<g>
								<rect x="24.567" y="45.722" class="st2" width="0.84" height="0.836"/>
								<path class="st2" d="M26.247,44.915v0.807h-0.84v-0.555C25.668,45.043,25.95,44.957,26.247,44.915z"/>
								<path class="st2" d="M26.247,49.903v0.807c-0.296-0.042-0.579-0.129-0.84-0.252v-0.555H26.247z"/>
								<rect x="26.247" y="45.722" class="st2" width="0.84" height="0.836"/>
								<rect x="27.926" y="45.722" class="st2" width="0.84" height="0.836"/>
								<path class="st2" d="M24.567,46.558v0.836h-0.81c0.042-0.295,0.129-0.576,0.253-0.836H24.567z"/>
								<rect x="25.407" y="46.558" class="st2" width="0.84" height="0.836"/>
								<rect x="24.567" y="47.394" class="st2" width="0.84" height="0.836"/>
								<rect x="26.247" y="47.394" class="st2" width="0.84" height="0.836"/>
								<rect x="27.926" y="47.394" class="st2" width="0.84" height="0.836"/>
								<path class="st2" d="M24.567,48.231v0.836h-0.557c-0.124-0.26-0.211-0.541-0.253-0.836H24.567z"/>
								<rect x="25.407" y="48.231" class="st2" width="0.84" height="0.836"/>
								<path class="st2" d="M27.926,45.167v0.555h-0.84v-0.807C27.383,44.957,27.665,45.043,27.926,45.167z"/>
								<path class="st2" d="M27.926,49.903v0.555c-0.261,0.124-0.543,0.21-0.84,0.252v-0.807H27.926z"/>
								<rect x="27.087" y="46.558" class="st2" width="0.84" height="0.836"/>
								<rect x="27.087" y="48.231" class="st2" width="0.84" height="0.836"/>
								<path class="st2" d="M29.576,47.394h-0.81v-0.836h0.557C29.447,46.818,29.533,47.099,29.576,47.394z"/>
								<path class="st2" d="M29.576,48.231c-0.042,0.295-0.129,0.576-0.253,0.836h-0.557v-0.836H29.576z"/>
								<rect x="24.567" y="49.067" class="st2" width="0.84" height="0.836"/>
								<rect x="26.247" y="49.067" class="st2" width="0.84" height="0.836"/>
								<rect x="27.926" y="49.067" class="st2" width="0.84" height="0.836"/>
							</g>
						</g>
						<g>
							<g>
								<rect x="35.234" y="56.347" class="st2" width="0.84" height="0.836"/>
								<path class="st2" d="M36.914,55.54v0.807h-0.84v-0.555C36.335,55.668,36.617,55.582,36.914,55.54z"/>
								<path class="st2" d="M36.914,60.528v0.807c-0.297-0.042-0.579-0.129-0.84-0.252v-0.555H36.914z"/>
								<rect x="36.914" y="56.347" class="st2" width="0.84" height="0.836"/>
								<rect x="38.593" y="56.347" class="st2" width="0.84" height="0.836"/>
								<path class="st2" d="M35.234,57.183v0.836h-0.81c0.042-0.295,0.129-0.576,0.253-0.836H35.234z"/>
								<rect x="36.074" y="57.183" class="st2" width="0.84" height="0.836"/>
								<rect x="35.234" y="58.019" class="st2" width="0.84" height="0.836"/>
								<rect x="36.914" y="58.019" class="st2" width="0.84" height="0.836"/>
								<rect x="38.593" y="58.019" class="st2" width="0.84" height="0.836"/>
								<path class="st2" d="M35.234,58.856v0.836h-0.557c-0.124-0.26-0.211-0.541-0.253-0.836H35.234z"/>
								<rect x="36.074" y="58.856" class="st2" width="0.84" height="0.836"/>
								<path class="st2" d="M38.593,55.792v0.555h-0.84V55.54C38.05,55.582,38.332,55.668,38.593,55.792z"/>
								<path class="st2" d="M38.593,60.528v0.555c-0.261,0.124-0.543,0.21-0.84,0.252v-0.807H38.593z"/>
								<rect x="37.753" y="57.183" class="st2" width="0.84" height="0.836"/>
								<rect x="37.753" y="58.856" class="st2" width="0.84" height="0.836"/>
								<path class="st2" d="M40.242,58.019h-0.81v-0.836h0.557C40.113,57.443,40.2,57.724,40.242,58.019z"/>
								<path class="st2" d="M40.242,58.856c-0.042,0.295-0.129,0.576-0.253,0.836h-0.557v-0.836H40.242z"/>
								<rect x="35.234" y="59.692" class="st2" width="0.84" height="0.836"/>
								<rect x="36.914" y="59.692" class="st2" width="0.84" height="0.836"/>
								<rect x="38.593" y="59.692" class="st2" width="0.84" height="0.836"/>
							</g>
						</g>
					</g>
					<g>
						<g>
							<g>
								<rect x="24.567" y="66.971" class="st2" width="0.84" height="0.836"/>
								<path class="st2" d="M26.247,66.165v0.807h-0.84v-0.555C25.668,66.293,25.95,66.207,26.247,66.165z"/>
								<path class="st2" d="M26.247,71.154v0.807c-0.296-0.042-0.579-0.128-0.84-0.252v-0.555H26.247z"/>
								<rect x="26.247" y="66.971" class="st2" width="0.84" height="0.836"/>
								<rect x="27.926" y="66.971" class="st2" width="0.84" height="0.836"/>
								<path class="st2" d="M24.567,67.808v0.836h-0.81c0.042-0.295,0.129-0.576,0.253-0.836H24.567z"/>
								<rect x="25.407" y="67.808" class="st2" width="0.84" height="0.836"/>
								<rect x="24.567" y="68.644" class="st2" width="0.84" height="0.836"/>
								<rect x="26.247" y="68.644" class="st2" width="0.84" height="0.836"/>
								<rect x="27.926" y="68.644" class="st2" width="0.84" height="0.836"/>
								<path class="st2" d="M24.567,69.481v0.836h-0.557c-0.124-0.26-0.211-0.541-0.253-0.836H24.567z"/>
								<rect x="25.407" y="69.481" class="st2" width="0.84" height="0.836"/>
								<path class="st2" d="M27.926,66.417v0.555h-0.84v-0.807C27.383,66.207,27.665,66.293,27.926,66.417z"/>
								<path class="st2" d="M27.926,71.154v0.555c-0.261,0.124-0.543,0.21-0.84,0.252v-0.807H27.926z"/>
								<rect x="27.087" y="67.808" class="st2" width="0.84" height="0.836"/>
								<rect x="27.087" y="69.481" class="st2" width="0.84" height="0.836"/>
								<path class="st2" d="M29.576,68.644h-0.81v-0.836h0.557C29.447,68.068,29.533,68.349,29.576,68.644z"/>
								<path class="st2" d="M29.576,69.481c-0.042,0.295-0.129,0.576-0.253,0.836h-0.557v-0.836H29.576z"/>
								<rect x="24.567" y="70.317" class="st2" width="0.84" height="0.836"/>
								<rect x="26.247" y="70.317" class="st2" width="0.84" height="0.836"/>
								<rect x="27.926" y="70.317" class="st2" width="0.84" height="0.836"/>
							</g>
						</g>
						<g>
							<g>
								<rect x="35.234" y="77.596" class="st2" width="0.84" height="0.836"/>
								<path class="st2" d="M36.914,76.79v0.807h-0.84v-0.555C36.335,76.918,36.617,76.832,36.914,76.79z"/>
								<path class="st2" d="M36.914,81.779v0.807c-0.297-0.042-0.579-0.128-0.84-0.252v-0.555H36.914z"/>
								<rect x="36.914" y="77.596" class="st2" width="0.84" height="0.836"/>
								<rect x="38.593" y="77.596" class="st2" width="0.84" height="0.836"/>
								<path class="st2" d="M35.234,78.433v0.836h-0.81c0.042-0.295,0.129-0.576,0.253-0.836H35.234z"/>
								<rect x="36.074" y="78.433" class="st2" width="0.84" height="0.836"/>
								<rect x="35.234" y="79.269" class="st2" width="0.84" height="0.836"/>
								<rect x="36.914" y="79.269" class="st2" width="0.84" height="0.836"/>
								<rect x="38.593" y="79.269" class="st2" width="0.84" height="0.836"/>
								<path class="st2" d="M35.234,80.106v0.836h-0.557c-0.124-0.26-0.211-0.541-0.253-0.836H35.234z"/>
								<rect x="36.074" y="80.106" class="st2" width="0.84" height="0.836"/>
								<path class="st2" d="M38.593,77.042v0.555h-0.84V76.79C38.05,76.832,38.332,76.918,38.593,77.042z"/>
								<path class="st2" d="M38.593,81.779v0.555c-0.261,0.124-0.543,0.21-0.84,0.252v-0.807H38.593z"/>
								<rect x="37.753" y="78.433" class="st2" width="0.84" height="0.836"/>
								<rect x="37.753" y="80.106" class="st2" width="0.84" height="0.836"/>
								<path class="st2" d="M40.242,79.269h-0.81v-0.836h0.557C40.113,78.693,40.2,78.974,40.242,79.269z"/>
								<path class="st2" d="M40.242,80.106c-0.042,0.295-0.129,0.576-0.253,0.836h-0.557v-0.836H40.242z"/>
								<rect x="35.234" y="80.942" class="st2" width="0.84" height="0.836"/>
								<rect x="36.914" y="80.942" class="st2" width="0.84" height="0.836"/>
								<rect x="38.593" y="80.942" class="st2" width="0.84" height="0.836"/>
							</g>
						</g>
					</g>
				</g>
				<g>
					<g>
						<g>
							<g>
								<rect x="45.901" y="45.722" class="st2" width="0.84" height="0.836"/>
								<path class="st2" d="M47.58,44.915v0.807h-0.84v-0.555C47.001,45.043,47.284,44.957,47.58,44.915z"/>
								<path class="st2" d="M47.58,49.903v0.807c-0.297-0.042-0.579-0.129-0.84-0.252v-0.555H47.58z"/>
								<rect x="47.58" y="45.722" class="st2" width="0.84" height="0.836"/>
								<rect x="49.259" y="45.722" class="st2" width="0.84" height="0.836"/>
								<path class="st2" d="M45.901,46.558v0.836h-0.81c0.042-0.295,0.129-0.576,0.253-0.836H45.901z"/>
								<rect x="46.741" y="46.558" class="st2" width="0.84" height="0.836"/>
								<rect x="45.901" y="47.394" class="st2" width="0.84" height="0.836"/>
								<rect x="47.58" y="47.394" class="st2" width="0.84" height="0.836"/>
								<rect x="49.259" y="47.394" class="st2" width="0.84" height="0.836"/>
								<path class="st2" d="M45.901,48.231v0.836h-0.557c-0.124-0.26-0.211-0.541-0.253-0.836H45.901z"/>
								<rect x="46.741" y="48.231" class="st2" width="0.84" height="0.836"/>
								<path class="st2" d="M49.259,45.167v0.555h-0.84v-0.807C48.716,44.957,48.999,45.043,49.259,45.167z"/>
								<path class="st2" d="M49.259,49.903v0.555c-0.261,0.124-0.543,0.21-0.84,0.252v-0.807H49.259z"/>
								<rect x="48.42" y="46.558" class="st2" width="0.84" height="0.836"/>
								<rect x="48.42" y="48.231" class="st2" width="0.84" height="0.836"/>
								<path class="st2" d="M50.909,47.394h-0.81v-0.836h0.557C50.78,46.818,50.867,47.099,50.909,47.394z"/>
								<path class="st2" d="M50.909,48.231c-0.042,0.295-0.129,0.576-0.253,0.836h-0.557v-0.836H50.909z"/>
								<rect x="45.901" y="49.067" class="st2" width="0.84" height="0.836"/>
								<rect x="47.58" y="49.067" class="st2" width="0.84" height="0.836"/>
								<rect x="49.259" y="49.067" class="st2" width="0.84" height="0.836"/>
							</g>
						</g>
						<g>
							<g>
								<rect x="56.568" y="56.347" class="st2" width="0.84" height="0.836"/>
								<path class="st2" d="M58.247,55.54v0.807h-0.84v-0.555C57.668,55.668,57.95,55.582,58.247,55.54z"/>
								<path class="st2" d="M58.247,60.528v0.807c-0.296-0.042-0.579-0.129-0.84-0.252v-0.555H58.247z"/>
								<rect x="58.247" y="56.347" class="st2" width="0.84" height="0.836"/>
								<rect x="59.926" y="56.347" class="st2" width="0.84" height="0.836"/>
								<path class="st2" d="M56.568,57.183v0.836h-0.81c0.042-0.295,0.129-0.576,0.253-0.836H56.568z"/>
								<rect x="57.407" y="57.183" class="st2" width="0.84" height="0.836"/>
								<rect x="56.568" y="58.019" class="st2" width="0.84" height="0.836"/>
								<rect x="58.247" y="58.019" class="st2" width="0.84" height="0.836"/>
								<rect x="59.926" y="58.019" class="st2" width="0.84" height="0.836"/>
								<path class="st2" d="M56.568,58.856v0.836h-0.557c-0.124-0.26-0.211-0.541-0.253-0.836H56.568z"/>
								<rect x="57.407" y="58.856" class="st2" width="0.84" height="0.836"/>
								<path class="st2" d="M59.926,55.792v0.555h-0.84V55.54C59.383,55.582,59.665,55.668,59.926,55.792z"/>
								<path class="st2" d="M59.926,60.528v0.555c-0.261,0.124-0.543,0.21-0.84,0.252v-0.807H59.926z"/>
								<rect x="59.086" y="57.183" class="st2" width="0.84" height="0.836"/>
								<rect x="59.086" y="58.856" class="st2" width="0.84" height="0.836"/>
								<path class="st2" d="M61.576,58.019h-0.81v-0.836h0.557C61.447,57.443,61.533,57.724,61.576,58.019z"/>
								<path class="st2" d="M61.576,58.856c-0.042,0.295-0.129,0.576-0.253,0.836h-0.557v-0.836H61.576z"/>
								<rect x="56.568" y="59.692" class="st2" width="0.84" height="0.836"/>
								<rect x="58.247" y="59.692" class="st2" width="0.84" height="0.836"/>
								<rect x="59.926" y="59.692" class="st2" width="0.84" height="0.836"/>
							</g>
						</g>
					</g>
					<g>
						<g>
							<g>
								<rect x="45.901" y="66.971" class="st2" width="0.84" height="0.836"/>
								<path class="st2" d="M47.58,66.165v0.807h-0.84v-0.555C47.001,66.293,47.284,66.207,47.58,66.165z"/>
								<path class="st2" d="M47.58,71.154v0.807c-0.297-0.042-0.579-0.128-0.84-0.252v-0.555H47.58z"/>
								<rect x="47.58" y="66.971" class="st2" width="0.84" height="0.836"/>
								<rect x="49.259" y="66.971" class="st2" width="0.84" height="0.836"/>
								<path class="st2" d="M45.901,67.808v0.836h-0.81c0.042-0.295,0.129-0.576,0.253-0.836H45.901z"/>
								<rect x="46.741" y="67.808" class="st2" width="0.84" height="0.836"/>
								<rect x="45.901" y="68.644" class="st2" width="0.84" height="0.836"/>
								<rect x="47.58" y="68.644" class="st2" width="0.84" height="0.836"/>
								<rect x="49.259" y="68.644" class="st2" width="0.84" height="0.836"/>
								<path class="st2" d="M45.901,69.481v0.836h-0.557c-0.124-0.26-0.211-0.541-0.253-0.836H45.901z"/>
								<rect x="46.741" y="69.481" class="st2" width="0.84" height="0.836"/>
								<path class="st2" d="M49.259,66.417v0.555h-0.84v-0.807C48.716,66.207,48.999,66.293,49.259,66.417z"/>
								<path class="st2" d="M49.259,71.154v0.555c-0.261,0.124-0.543,0.21-0.84,0.252v-0.807H49.259z"/>
								<rect x="48.42" y="67.808" class="st2" width="0.84" height="0.836"/>
								<rect x="48.42" y="69.481" class="st2" width="0.84" height="0.836"/>
								<path class="st2" d="M50.909,68.644h-0.81v-0.836h0.557C50.78,68.068,50.867,68.349,50.909,68.644z"/>
								<path class="st2" d="M50.909,69.481c-0.042,0.295-0.129,0.576-0.253,0.836h-0.557v-0.836H50.909z"/>
								<rect x="45.901" y="70.317" class="st2" width="0.84" height="0.836"/>
								<rect x="47.58" y="70.317" class="st2" width="0.84" height="0.836"/>
								<rect x="49.259" y="70.317" class="st2" width="0.84" height="0.836"/>
							</g>
						</g>
						<g>
							<g>
								<rect x="56.568" y="77.596" class="st2" width="0.84" height="0.836"/>
								<path class="st2" d="M58.247,76.79v0.807h-0.84v-0.555C57.668,76.918,57.95,76.832,58.247,76.79z"/>
								<path class="st2" d="M58.247,81.779v0.807c-0.296-0.042-0.579-0.128-0.84-0.252v-0.555H58.247z"/>
								<rect x="58.247" y="77.596" class="st2" width="0.84" height="0.836"/>
								<rect x="59.926" y="77.596" class="st2" width="0.84" height="0.836"/>
								<path class="st2" d="M56.568,78.433v0.836h-0.81c0.042-0.295,0.129-0.576,0.253-0.836H56.568z"/>
								<rect x="57.407" y="78.433" class="st2" width="0.84" height="0.836"/>
								<rect x="56.568" y="79.269" class="st2" width="0.84" height="0.836"/>
								<rect x="58.247" y="79.269" class="st2" width="0.84" height="0.836"/>
								<rect x="59.926" y="79.269" class="st2" width="0.84" height="0.836"/>
								<path class="st2" d="M56.568,80.106v0.836h-0.557c-0.124-0.26-0.211-0.541-0.253-0.836H56.568z"/>
								<rect x="57.407" y="80.106" class="st2" width="0.84" height="0.836"/>
								<path class="st2" d="M59.926,77.042v0.555h-0.84V76.79C59.383,76.832,59.665,76.918,59.926,77.042z"/>
								<path class="st2" d="M59.926,81.779v0.555c-0.261,0.124-0.543,0.21-0.84,0.252v-0.807H59.926z"/>
								<rect x="59.086" y="78.433" class="st2" width="0.84" height="0.836"/>
								<rect x="59.086" y="80.106" class="st2" width="0.84" height="0.836"/>
								<path class="st2" d="M61.576,79.269h-0.81v-0.836h0.557C61.447,78.693,61.533,78.974,61.576,79.269z"/>
								<path class="st2" d="M61.576,80.106c-0.042,0.295-0.129,0.576-0.253,0.836h-0.557v-0.836H61.576z"/>
								<rect x="56.568" y="80.942" class="st2" width="0.84" height="0.836"/>
								<rect x="58.247" y="80.942" class="st2" width="0.84" height="0.836"/>
								<rect x="59.926" y="80.942" class="st2" width="0.84" height="0.836"/>
							</g>
						</g>
					</g>
				</g>
			</g>
		</g>
	</g>
</g>
</svg>
